<svg version="1.1" id="Layer_1" xmlns="http://www.w3.org/2000/svg" xmlns:xlink="http://www.w3.org/1999/xlink" x="0px" y="0px"
	 width="100%" viewBox="0 0 2002 1394" enable-background="new 0 0 2002 1394" xml:space="preserve">
<path fill="#FFFFFF" opacity="1.000000" stroke="none" 
	d="
M1293.000000,1395.000000 
	C862.000122,1395.000000 431.500244,1395.000000 1.000289,1395.000000 
	C1.000193,930.333618 1.000193,465.667206 1.000096,1.000600 
	C668.332886,1.000400 1335.665771,1.000400 2002.999023,1.000200 
	C2002.999268,465.666046 2002.999268,930.332092 2002.999634,1394.999023 
	C1766.500000,1395.000000 1530.000000,1395.000000 1293.000000,1395.000000 
M1681.999878,1286.952393 
	C1695.008545,1286.906616 1708.017212,1286.860840 1721.949585,1286.962891 
	C1736.035400,1286.689575 1750.194824,1287.216309 1764.187500,1285.930054 
	C1779.861328,1284.489136 1795.661011,1282.543945 1810.921997,1278.829590 
	C1860.852661,1266.676880 1902.382446,1241.376831 1930.896118,1197.557617 
	C1948.677979,1170.230957 1958.419189,1140.220459 1958.040405,1107.285522 
	C1958.012573,1104.868042 1958.558716,1102.444092 1958.969482,1099.091064 
	C1958.979370,1028.712769 1958.990112,958.334534 1958.991821,887.956238 
	C1958.991821,886.962158 1958.876099,885.968018 1958.612793,884.162598 
	C1958.408569,882.391602 1958.112671,880.625610 1958.015991,878.848755 
	C1957.612793,871.436096 1957.852173,863.936279 1956.800293,856.620239 
	C1952.804565,828.827026 1942.619751,803.431274 1926.244507,780.553162 
	C1912.084717,760.770081 1894.154053,745.066345 1873.908203,731.035950 
	C1872.653442,721.805054 1871.520264,712.555786 1870.124756,703.346191 
	C1859.781860,635.091370 1839.032471,570.068787 1808.682373,508.143311 
	C1761.679077,412.238434 1696.104248,330.795044 1614.932251,261.783905 
	C1527.560181,187.501480 1428.829712,133.285690 1320.366333,96.490311 
	C1243.896118,70.548401 1165.329224,54.750015 1084.905518,48.239708 
	C1045.385376,45.040546 1005.792053,44.250473 966.125305,45.734062 
	C917.795532,47.541653 869.839600,52.553673 822.309753,61.304863 
	C730.010193,78.299042 641.856506,107.663170 558.349609,150.712891 
	C470.691620,195.902557 392.257782,253.475174 324.893219,325.637970 
	C235.281464,421.632507 173.149811,532.602478 144.714249,661.414490 
	C139.597336,684.593933 136.885254,708.304260 132.427612,732.080017 
	C131.647278,732.688232 130.904816,733.354065 130.081009,733.896240 
	C111.717049,745.983765 95.555870,760.431885 82.393486,778.135620 
	C61.267166,806.550964 48.857376,838.669067 48.346737,873.785889 
	C47.227516,950.754211 47.817505,1027.750854 48.186192,1104.733765 
	C48.245052,1117.024292 49.580170,1129.581787 52.368214,1141.539429 
	C65.016670,1195.787720 97.414810,1234.909912 146.304886,1260.701660 
	C173.785675,1275.199097 203.409866,1283.009644 234.163345,1285.768799 
	C251.324265,1287.308594 268.692017,1286.542969 286.898163,1286.965820 
	C299.903473,1286.916748 312.908783,1286.867676 326.855621,1286.951050 
	C335.685272,1286.967407 344.515747,1287.060913 353.344208,1286.966797 
	C357.615265,1286.921265 361.882507,1286.523560 367.064240,1286.185303 
	C394.701813,1286.069824 422.339417,1285.954224 450.908875,1285.970215 
	C465.911652,1285.919312 480.914429,1285.868408 496.856415,1285.949829 
	C515.264404,1285.922852 533.672363,1285.895996 553.001282,1285.983521 
	C571.609985,1286.363892 590.219910,1286.691284 608.826721,1287.150146 
	C616.609436,1287.341919 624.394287,1287.676636 632.162354,1288.187134 
	C644.851929,1289.020996 657.526428,1290.080566 670.211182,1290.991211 
	C680.768127,1291.748901 691.352112,1292.201172 701.885254,1293.199219 
	C716.661255,1294.599121 731.405457,1296.341919 746.155396,1298.007568 
	C760.885071,1299.671265 775.637024,1301.187012 790.320190,1303.198364 
	C804.809387,1305.183228 819.274292,1307.435181 833.660828,1310.058594 
	C855.443176,1314.030762 877.388977,1317.470459 898.828857,1322.869873 
	C929.318298,1330.548096 959.437073,1339.710815 989.656738,1348.438232 
	C997.265869,1350.635864 1004.261658,1352.818848 1012.616150,1350.007568 
	C1034.804810,1342.541748 1057.201782,1335.595093 1079.782959,1329.418457 
	C1114.203003,1320.003418 1149.186279,1313.051270 1184.520386,1307.993774 
	C1204.248657,1305.169800 1223.995972,1302.450439 1243.776367,1300.024536 
	C1264.271240,1297.510864 1284.795166,1295.184814 1305.346802,1293.195679 
	C1322.486816,1291.536621 1339.669922,1290.209595 1356.862183,1289.230103 
	C1379.371826,1287.947632 1401.905273,1287.049683 1424.436523,1286.193726 
	C1434.253052,1285.820679 1444.089111,1285.962646 1454.860352,1285.964478 
	C1473.601074,1285.915527 1492.341919,1285.866455 1512.000000,1285.952148 
	C1526.672363,1285.913940 1541.344604,1285.875732 1556.942505,1285.979370 
	C1584.911499,1286.081421 1612.880371,1286.183472 1641.527588,1286.796997 
	C1654.712524,1286.803833 1667.897583,1286.810669 1681.999878,1286.952393 
z"/>
<path fill="#C62E27" opacity="1.000000" stroke="none" 
	d="
M449.976990,1285.838745 
	C422.339417,1285.954224 394.701813,1286.069824 366.138092,1286.130737 
	C352.163422,1286.079712 339.114929,1286.083374 325.594757,1286.052490 
	C314.322357,1286.011963 303.521301,1285.960327 292.721161,1286.037231 
	C290.467896,1286.053223 288.217987,1286.544067 285.966553,1286.816162 
	C268.692017,1286.542969 251.324265,1287.308594 234.163345,1285.768799 
	C203.409866,1283.009644 173.785675,1275.199097 146.304886,1260.701660 
	C97.414810,1234.909912 65.016670,1195.787720 52.368214,1141.539429 
	C49.580170,1129.581787 48.245052,1117.024292 48.186192,1104.733765 
	C47.817505,1027.750854 47.227516,950.754211 48.346737,873.785889 
	C48.857376,838.669067 61.267166,806.550964 82.393486,778.135620 
	C95.555870,760.431885 111.717049,745.983765 130.081009,733.896240 
	C130.904816,733.354065 131.647278,732.688232 133.070648,731.865356 
	C138.196487,728.773438 142.679291,725.896179 147.536377,723.015625 
	C154.926712,719.978027 161.942749,716.943726 169.348770,713.967773 
	C196.087311,704.943298 223.072418,699.242371 251.495605,698.769043 
	C295.968292,698.838379 339.978516,698.863159 384.456421,698.929199 
	C398.274414,699.014587 411.624695,699.058777 425.288483,699.375671 
	C439.767914,699.714111 453.933868,699.779907 468.560455,699.886414 
	C499.787689,699.942017 530.554321,699.991760 561.320801,699.931274 
	C565.576050,699.922852 569.830261,699.368896 574.548157,699.054932 
	C583.821350,698.757690 592.639221,698.622681 601.439819,698.159607 
	C626.344788,696.849304 651.253174,695.567444 676.139587,693.956665 
	C693.215332,692.851379 710.308655,691.667358 727.301697,689.714417 
	C755.335388,686.492615 783.421936,683.396484 811.251831,678.821716 
	C844.145325,673.414429 877.056091,667.611572 909.464661,659.901062 
	C939.479248,652.760071 968.817627,642.793823 998.525635,634.323669 
	C1001.635010,633.437134 1005.446716,633.500977 1008.565857,634.398376 
	C1036.503296,642.435547 1064.071655,651.963440 1092.312256,658.685181 
	C1125.697144,666.631470 1159.550659,672.747864 1193.375488,678.659363 
	C1216.086304,682.628540 1239.066040,685.160339 1261.988525,687.784424 
	C1281.295410,689.994568 1300.674561,691.661682 1320.055664,693.114990 
	C1344.749268,694.966675 1369.462036,696.677612 1394.194824,697.859131 
	C1416.777710,698.937927 1439.398315,699.229858 1462.467773,699.921875 
	C1501.053345,699.939514 1539.173462,699.911438 1577.293579,699.834290 
	C1578.557495,699.831787 1579.820312,699.331299 1581.546997,699.052124 
	C1608.999023,698.984802 1635.987671,698.928284 1663.443848,698.927246 
	C1694.277100,698.915100 1724.642700,698.847412 1755.468506,698.860962 
	C1768.464966,700.164856 1781.177979,700.470825 1793.491943,702.845520 
	C1808.431274,705.726440 1823.033569,710.353821 1838.011719,714.501770 
	C1839.769287,715.363281 1841.298462,715.944702 1842.824341,716.534485 
	C1848.268799,718.638916 1853.712158,720.746277 1859.434326,723.046387 
	C1864.435669,726.116821 1869.158569,728.993408 1873.881470,731.869934 
	C1894.154053,745.066345 1912.084717,760.770081 1926.244507,780.553162 
	C1942.619751,803.431274 1952.804565,828.827026 1956.800293,856.620239 
	C1957.852173,863.936279 1957.612793,871.436096 1958.015991,878.848755 
	C1958.112671,880.625610 1958.408569,882.391602 1958.447998,884.888855 
	C1958.188843,886.602356 1958.011963,887.589539 1958.011719,888.576782 
	C1957.998657,957.640381 1957.994873,1026.703979 1958.034790,1095.767578 
	C1958.035645,1097.186157 1958.558716,1098.604614 1958.838135,1100.023071 
	C1958.558716,1102.444092 1958.012573,1104.868042 1958.040405,1107.285522 
	C1958.419189,1140.220459 1948.677979,1170.230957 1930.896118,1197.557617 
	C1902.382446,1241.376831 1860.852661,1266.676880 1810.921997,1278.829590 
	C1795.661011,1282.543945 1779.861328,1284.489136 1764.187500,1285.930054 
	C1750.194824,1287.216309 1736.035400,1286.689575 1721.167236,1286.623291 
	C1707.234009,1286.217773 1694.083130,1286.151733 1680.468994,1286.053833 
	C1666.953491,1286.109863 1653.901489,1286.197632 1640.849365,1286.285522 
	C1612.880371,1286.183472 1584.911499,1286.081421 1556.164673,1285.636719 
	C1540.568726,1285.224609 1525.750488,1285.155273 1510.468994,1285.053711 
	C1492.875366,1285.014404 1475.744873,1284.984497 1458.614868,1285.037842 
	C1457.047852,1285.042725 1455.482544,1285.580444 1453.916382,1285.870605 
	C1444.089111,1285.962646 1434.253052,1285.820679 1424.436523,1286.193726 
	C1401.905273,1287.049683 1379.371826,1287.947632 1356.862183,1289.230103 
	C1339.669922,1290.209595 1322.486816,1291.536621 1305.346802,1293.195679 
	C1284.795166,1295.184814 1264.271240,1297.510864 1243.776367,1300.024536 
	C1223.995972,1302.450439 1204.248657,1305.169800 1184.520386,1307.993774 
	C1149.186279,1313.051270 1114.203003,1320.003418 1079.782959,1329.418457 
	C1057.201782,1335.595093 1034.804810,1342.541748 1012.616150,1350.007568 
	C1004.261658,1352.818848 997.265869,1350.635864 989.656738,1348.438232 
	C959.437073,1339.710815 929.318298,1330.548096 898.828857,1322.869873 
	C877.388977,1317.470459 855.443176,1314.030762 833.660828,1310.058594 
	C819.274292,1307.435181 804.809387,1305.183228 790.320190,1303.198364 
	C775.637024,1301.187012 760.885071,1299.671265 746.155396,1298.007568 
	C731.405457,1296.341919 716.661255,1294.599121 701.885254,1293.199219 
	C691.352112,1292.201172 680.768127,1291.748901 670.211182,1290.991211 
	C657.526428,1290.080566 644.851929,1289.020996 632.162354,1288.187134 
	C624.394287,1287.676636 616.609436,1287.341919 608.826721,1287.150146 
	C590.219910,1286.691284 571.609985,1286.363892 552.247803,1285.617310 
	C533.018799,1285.196045 514.543274,1285.140869 495.594666,1285.050171 
	C481.656494,1285.009766 468.191193,1284.977173 454.726288,1285.036987 
	C453.142059,1285.044067 451.560028,1285.559204 449.976990,1285.838745 
M408.896912,1206.002563 
	C421.522186,1206.001709 434.147644,1206.033936 446.772522,1205.961792 
	C448.522675,1205.951904 450.269897,1205.426758 452.946320,1205.018188 
	C487.618195,1204.923950 522.290100,1204.829712 557.484497,1204.917969 
	C557.665894,1204.884399 557.847290,1204.850708 558.946106,1204.964844 
	C565.542358,1205.309937 572.134949,1205.792603 578.735657,1205.972290 
	C594.158691,1206.392334 609.585693,1206.667114 625.011047,1207.000000 
	C625.344177,1207.007202 625.678589,1206.988037 626.010620,1207.009155 
	C641.636047,1208.000610 657.263489,1208.963379 672.885803,1210.001831 
	C682.080383,1210.612915 691.285095,1211.161499 700.453186,1212.063599 
	C715.773010,1213.571167 731.065613,1215.354370 746.372742,1216.992676 
	C759.079102,1218.352539 771.824707,1219.406128 784.489685,1221.075562 
	C800.001953,1223.120239 815.471436,1225.522461 830.916931,1228.031738 
	C848.276245,1230.852051 865.617126,1233.806396 882.914673,1236.981934 
	C919.012024,1243.609131 954.440857,1252.914795 989.515259,1263.681885 
	C996.027039,1265.680908 1002.333130,1268.080933 1009.934631,1265.379150 
	C1044.385498,1253.134521 1079.956299,1244.666260 1115.874146,1238.393799 
	C1157.090210,1231.195801 1198.636475,1225.843750 1240.099121,1220.124390 
	C1256.565918,1217.853027 1273.176514,1216.543335 1289.752441,1215.165649 
	C1309.000610,1213.565918 1328.277466,1212.294556 1347.551880,1211.031494 
	C1359.262329,1210.264160 1370.986328,1209.638062 1382.713745,1209.207886 
	C1397.465210,1208.666626 1412.224243,1208.241821 1426.983765,1208.038208 
	C1444.974609,1207.789795 1462.969238,1207.823486 1481.480713,1207.921509 
	C1481.662109,1207.893555 1481.843506,1207.865479 1482.948975,1207.979370 
	C1490.708984,1208.319580 1498.466187,1208.838745 1506.229614,1208.967163 
	C1531.650635,1209.387939 1557.073486,1209.683350 1582.496094,1209.995361 
	C1611.250977,1210.348145 1640.005249,1210.775391 1668.761230,1210.966675 
	C1693.087402,1211.128540 1717.418945,1210.756470 1741.741821,1211.081421 
	C1759.440430,1211.317871 1776.706665,1208.877441 1793.698486,1204.272217 
	C1813.670410,1198.859619 1832.172974,1190.212769 1847.503418,1176.166992 
	C1867.613037,1157.742432 1876.534302,1134.124268 1877.655884,1106.434204 
	C1877.770630,1104.949829 1877.985352,1103.465576 1877.985718,1101.981201 
	C1878.002075,1029.192261 1878.004761,956.403259 1877.968628,883.614319 
	C1877.967773,882.018555 1877.498901,880.422974 1877.182739,877.921814 
	C1876.249390,870.077332 1875.989746,862.080627 1874.257690,854.416626 
	C1868.814575,830.330750 1854.834717,811.994690 1834.344116,798.663330 
	C1809.401245,782.435425 1781.564087,775.799927 1751.897217,774.445496 
	C1751.585938,774.384583 1751.274658,774.323730 1750.036011,774.162903 
	C1739.034180,774.205688 1728.032471,774.248474 1716.426880,774.100220 
	C1715.915527,774.376892 1715.404053,774.653564 1713.970703,774.991028 
	C1697.544800,774.994019 1681.118042,774.901733 1664.693115,775.032898 
	C1653.485474,775.122375 1642.280273,775.523987 1630.496094,775.158203 
	C1623.053223,775.138062 1615.608276,775.005493 1608.167969,775.133057 
	C1602.102539,775.237000 1596.042480,775.652161 1589.047241,775.990845 
	C1576.387329,776.263062 1563.727295,776.535278 1550.481445,776.190369 
	C1543.534302,776.156738 1536.585205,776.009155 1529.640503,776.124390 
	C1523.744385,776.222168 1517.853394,776.623413 1511.032471,776.985901 
	C1498.382935,777.280762 1485.733276,777.575623 1472.496704,777.252380 
	C1466.026733,777.168213 1459.555542,776.968079 1453.087402,777.044678 
	C1449.360840,777.088867 1445.639648,777.580383 1440.997803,777.983337 
	C1434.904907,777.655640 1428.815308,777.238220 1422.718506,777.020630 
	C1412.612061,776.659851 1402.500977,776.424255 1392.391724,776.142029 
	C1378.639282,775.758179 1364.884888,775.433167 1351.135132,774.971191 
	C1346.201660,774.805542 1341.276367,774.353149 1336.352417,773.966003 
	C1323.887329,772.986206 1311.426025,771.959351 1298.961792,770.970459 
	C1290.262573,770.280212 1281.547729,769.758179 1272.863525,768.916199 
	C1260.622559,767.729370 1248.403076,766.319946 1236.175171,764.998291 
	C1226.709351,763.975281 1217.218506,763.135437 1207.786621,761.859619 
	C1197.395874,760.454041 1187.063477,758.621155 1176.699585,757.013733 
	C1157.111084,753.975403 1137.368896,751.700439 1117.964966,747.757812 
	C1093.607300,742.808655 1069.452881,736.787964 1045.354004,730.666077 
	C1032.609131,727.428589 1020.210632,722.847168 1007.556702,719.217651 
	C1004.760620,718.415527 1001.352234,718.387573 998.558777,719.178833 
	C988.048279,722.155701 977.768127,725.960510 967.228699,728.816956 
	C952.242554,732.878601 937.124329,736.462646 922.023376,740.087524 
	C910.565979,742.837708 899.118042,745.714050 887.540833,747.859131 
	C866.684448,751.723633 845.742188,755.129089 824.819885,758.631287 
	C815.416321,760.205322 805.997620,761.729919 796.543640,762.950562 
	C786.632385,764.230225 776.658386,765.016602 766.733948,766.203552 
	C754.185974,767.704346 741.688782,769.678772 729.117554,770.922607 
	C715.161194,772.303528 701.146118,773.092285 687.156555,774.137146 
	C669.906067,775.425659 652.660950,776.792603 635.403015,777.972168 
	C623.560608,778.781677 611.707764,779.560852 599.846313,779.938354 
	C583.598755,780.455505 567.338623,780.578857 550.496704,780.252869 
	C548.677063,780.168945 546.857422,780.012695 545.037720,780.011780 
	C515.620789,779.996521 486.203888,779.979736 456.787018,780.010742 
	C443.828369,780.024353 430.869873,780.144165 417.422974,780.146912 
	C417.422974,780.146912 416.962799,780.324219 416.042053,780.172302 
	C393.700684,780.067566 371.359314,779.962769 348.379120,779.325195 
	C339.578369,779.495789 330.777649,779.666382 321.052155,779.979126 
	C305.639191,779.652954 290.226868,779.117126 274.813080,779.071594 
	C263.898285,779.039368 252.971802,779.490356 242.069489,780.077759 
	C236.212524,780.393311 230.303619,781.024475 224.578461,782.257568 
	C209.712540,785.459290 195.227585,789.774963 181.731125,797.136841 
	C162.701385,807.517212 147.586212,821.602539 138.015610,841.269409 
	C131.918030,853.799377 128.699951,866.995667 128.283249,881.609436 
	C128.189072,882.596802 128.012604,883.584106 128.012421,884.571472 
	C127.999535,956.302673 127.995964,1028.033813 128.034500,1099.765015 
	C128.035263,1101.188599 128.542007,1102.612061 128.960541,1104.946045 
	C129.338120,1109.362427 129.542908,1113.801758 130.123215,1118.191406 
	C132.624756,1137.113159 141.013260,1153.334106 153.809387,1167.189331 
	C166.945877,1181.413330 183.517258,1190.463135 201.555542,1197.000244 
	C221.462112,1204.214600 242.277161,1206.167969 263.173523,1206.855103 
	C276.567535,1207.295166 290.006012,1206.176147 303.427460,1206.036621 
	C323.909882,1205.823608 344.394775,1205.853271 365.818085,1205.961548 
	C379.864044,1205.954590 393.910004,1205.947510 408.896912,1206.002563 
z"/>
<path fill="#363091" opacity="1.000000" stroke="none" 
	d="
M1873.894775,731.452942 
	C1869.158569,728.993408 1864.435669,726.116821 1859.429443,722.639648 
	C1858.910645,720.731628 1858.746826,719.406555 1858.429077,718.119446 
	C1846.545166,669.975830 1828.942871,623.998108 1805.869751,580.126160 
	C1770.604980,513.072449 1724.861450,453.963959 1670.346924,401.483124 
	C1603.919434,337.533936 1528.604004,286.473297 1445.617432,246.635895 
	C1344.077881,197.892273 1237.029419,168.412491 1125.204590,155.790283 
	C1070.830078,149.652756 1016.339172,147.724152 961.659546,149.779007 
	C915.515503,151.513092 869.705566,156.175919 824.185486,163.869217 
	C732.023865,179.445297 643.578247,206.796097 559.395203,247.567078 
	C459.876862,295.765137 371.739990,359.365265 297.623169,441.797424 
	C254.406708,489.862457 218.392853,542.814880 190.434525,601.152771 
	C171.702957,640.238098 157.329254,680.885315 147.162094,723.018982 
	C142.679291,725.896179 138.196487,728.773438 133.388275,731.710083 
	C136.885254,708.304260 139.597336,684.593933 144.714249,661.414490 
	C173.149811,532.602478 235.281464,421.632507 324.893219,325.637970 
	C392.257782,253.475174 470.691620,195.902557 558.349609,150.712891 
	C641.856506,107.663170 730.010193,78.299042 822.309753,61.304863 
	C869.839600,52.553673 917.795532,47.541653 966.125305,45.734062 
	C1005.792053,44.250473 1045.385376,45.040546 1084.905518,48.239708 
	C1165.329224,54.750015 1243.896118,70.548401 1320.366333,96.490311 
	C1428.829712,133.285690 1527.560181,187.501480 1614.932251,261.783905 
	C1696.104248,330.795044 1761.679077,412.238434 1808.682373,508.143311 
	C1839.032471,570.068787 1859.781860,635.091370 1870.124756,703.346191 
	C1871.520264,712.555786 1872.653442,721.805054 1873.894775,731.452942 
z"/>
<path fill="#D17251" opacity="1.000000" stroke="none" 
	d="
M1958.903809,1099.557129 
	C1958.558716,1098.604614 1958.035645,1097.186157 1958.034790,1095.767578 
	C1957.994873,1026.703979 1957.998657,957.640381 1958.011719,888.576782 
	C1958.011963,887.589539 1958.188843,886.602356 1958.548828,885.294556 
	C1958.876099,885.968018 1958.991821,886.962158 1958.991821,887.956238 
	C1958.990112,958.334534 1958.979370,1028.712769 1958.903809,1099.557129 
z"/>
<path fill="#E0A98A" opacity="1.000000" stroke="none" 
	d="
M1454.388428,1285.917480 
	C1455.482544,1285.580444 1457.047852,1285.042725 1458.614868,1285.037842 
	C1475.744873,1284.984497 1492.875366,1285.014404 1510.509766,1285.235840 
	C1511.013916,1285.450073 1511.082642,1285.817505 1511.082642,1285.817505 
	C1492.341919,1285.866455 1473.601074,1285.915527 1454.388428,1285.917480 
z"/>
<path fill="#E0A98A" opacity="1.000000" stroke="none" 
	d="
M496.067688,1285.085693 
	C514.543274,1285.140869 533.018799,1285.196045 551.787354,1285.560059 
	C533.672363,1285.895996 515.264404,1285.922852 496.421509,1285.700195 
	C495.986603,1285.450439 496.067688,1285.085693 496.067688,1285.085693 
z"/>
<path fill="#D17251" opacity="1.000000" stroke="none" 
	d="
M495.594666,1285.050171 
	C496.067688,1285.085693 495.986603,1285.450439 495.951904,1285.634033 
	C480.914429,1285.868408 465.911652,1285.919312 450.442932,1285.904541 
	C451.560028,1285.559204 453.142059,1285.044067 454.726288,1285.036987 
	C468.191193,1284.977173 481.656494,1285.009766 495.594666,1285.050171 
z"/>
<path fill="#D17251" opacity="1.000000" stroke="none" 
	d="
M1511.541260,1285.884766 
	C1511.082642,1285.817505 1511.013916,1285.450073 1510.973145,1285.267944 
	C1525.750488,1285.155273 1540.568726,1285.224609 1555.701904,1285.565796 
	C1541.344604,1285.875732 1526.672363,1285.913940 1511.541260,1285.884766 
z"/>
<path fill="#D17251" opacity="1.000000" stroke="none" 
	d="
M286.432373,1286.890991 
	C288.217987,1286.544067 290.467896,1286.053223 292.721161,1286.037231 
	C303.521301,1285.960327 314.322357,1286.011963 325.553772,1286.234619 
	C325.984467,1286.451172 325.914093,1286.818604 325.914093,1286.818604 
	C312.908783,1286.867676 299.903473,1286.916748 286.432373,1286.890991 
z"/>
<path fill="#E0A98A" opacity="1.000000" stroke="none" 
	d="
M326.384857,1286.884766 
	C325.914093,1286.818604 325.984467,1286.451172 326.025452,1286.269043 
	C339.114929,1286.083374 352.163422,1286.079712 365.681702,1286.180786 
	C361.882507,1286.523560 357.615265,1286.921265 353.344208,1286.966797 
	C344.515747,1287.060913 335.685272,1286.967407 326.384857,1286.884766 
z"/>
<path fill="#E0A98A" opacity="1.000000" stroke="none" 
	d="
M1641.188477,1286.541260 
	C1653.901489,1286.197632 1666.953491,1286.109863 1680.509766,1286.236084 
	C1681.013794,1286.450195 1681.082520,1286.817505 1681.082520,1286.817627 
	C1667.897583,1286.810669 1654.712524,1286.803833 1641.188477,1286.541260 
z"/>
<path fill="#D17251" opacity="1.000000" stroke="none" 
	d="
M1681.541260,1286.885010 
	C1681.082520,1286.817505 1681.013794,1286.450195 1680.973145,1286.267944 
	C1694.083130,1286.151733 1707.234009,1286.217773 1720.705322,1286.549438 
	C1708.017212,1286.860840 1695.008545,1286.906616 1681.541260,1286.885010 
z"/>
<path fill="#FFFFFF" opacity="1.000000" stroke="none" 
	d="
M1480.962280,1207.735352 
	C1462.969238,1207.823486 1444.974609,1207.789795 1426.983765,1208.038208 
	C1412.224243,1208.241821 1397.465210,1208.666626 1382.713745,1209.207886 
	C1370.986328,1209.638062 1359.262329,1210.264160 1347.551880,1211.031494 
	C1328.277466,1212.294556 1309.000610,1213.565918 1289.752441,1215.165649 
	C1273.176514,1216.543335 1256.565918,1217.853027 1240.099121,1220.124390 
	C1198.636475,1225.843750 1157.090210,1231.195801 1115.874146,1238.393799 
	C1079.956299,1244.666260 1044.385498,1253.134521 1009.934631,1265.379150 
	C1002.333130,1268.080933 996.027039,1265.680908 989.515259,1263.681885 
	C954.440857,1252.914795 919.012024,1243.609131 882.914673,1236.981934 
	C865.617126,1233.806396 848.276245,1230.852051 830.916931,1228.031738 
	C815.471436,1225.522461 800.001953,1223.120239 784.489685,1221.075562 
	C771.824707,1219.406128 759.079102,1218.352539 746.372742,1216.992676 
	C731.065613,1215.354370 715.773010,1213.571167 700.453186,1212.063599 
	C691.285095,1211.161499 682.080383,1210.612915 672.885803,1210.001831 
	C657.263489,1208.963379 641.636047,1208.000610 626.010620,1207.009155 
	C625.678589,1206.988037 625.344177,1207.007202 625.011047,1207.000000 
	C609.585693,1206.667114 594.158691,1206.392334 578.735657,1205.972290 
	C572.134949,1205.792603 565.542358,1205.309937 558.391968,1204.734375 
	C557.545898,1204.580933 557.253906,1204.658203 556.961975,1204.735596 
	C522.290100,1204.829712 487.618195,1204.923950 452.016785,1205.014282 
	C436.759064,1205.081543 422.430908,1205.152832 407.632782,1205.141968 
	C394.999390,1205.039795 382.835754,1204.985474 370.672607,1205.035400 
	C368.740295,1205.043213 366.809906,1205.520020 364.878632,1205.779907 
	C344.394775,1205.853271 323.909882,1205.823608 303.427460,1206.036621 
	C290.006012,1206.176147 276.567535,1207.295166 263.173523,1206.855103 
	C242.277161,1206.167969 221.462112,1204.214600 201.555542,1197.000244 
	C183.517258,1190.463135 166.945877,1181.413330 153.809387,1167.189331 
	C141.013260,1153.334106 132.624756,1137.113159 130.123215,1118.191406 
	C129.542908,1113.801758 129.338120,1109.362427 128.962219,1104.024780 
	C128.975464,1030.051514 128.987762,956.999451 128.990829,883.947388 
	C128.990875,882.953186 128.874619,881.958984 128.812637,880.964783 
	C128.699951,866.995667 131.918030,853.799377 138.015610,841.269409 
	C147.586212,821.602539 162.701385,807.517212 181.731125,797.136841 
	C195.227585,789.774963 209.712540,785.459290 224.578461,782.257568 
	C230.303619,781.024475 236.212524,780.393311 242.069489,780.077759 
	C252.971802,779.490356 263.898285,779.039368 274.813080,779.071594 
	C290.226868,779.117126 305.639191,779.652954 321.980591,779.973328 
	C331.611969,779.931030 340.314972,779.894531 349.017944,779.858032 
	C371.359314,779.962769 393.700684,780.067566 416.618286,780.441650 
	C417.438782,780.920654 417.720428,781.004028 418.505432,780.975342 
	C463.008911,780.950073 507.046417,780.910522 551.083923,780.870972 
	C567.338623,780.578857 583.598755,780.455505 599.846313,779.938354 
	C611.707764,779.560852 623.560608,778.781677 635.403015,777.972168 
	C652.660950,776.792603 669.906067,775.425659 687.156555,774.137146 
	C701.146118,773.092285 715.161194,772.303528 729.117554,770.922607 
	C741.688782,769.678772 754.185974,767.704346 766.733948,766.203552 
	C776.658386,765.016602 786.632385,764.230225 796.543640,762.950562 
	C805.997620,761.729919 815.416321,760.205322 824.819885,758.631287 
	C845.742188,755.129089 866.684448,751.723633 887.540833,747.859131 
	C899.118042,745.714050 910.565979,742.837708 922.023376,740.087524 
	C937.124329,736.462646 952.242554,732.878601 967.228699,728.816956 
	C977.768127,725.960510 988.048279,722.155701 998.558777,719.178833 
	C1001.352234,718.387573 1004.760620,718.415527 1007.556702,719.217651 
	C1020.210632,722.847168 1032.609131,727.428589 1045.354004,730.666077 
	C1069.452881,736.787964 1093.607300,742.808655 1117.964966,747.757812 
	C1137.368896,751.700439 1157.111084,753.975403 1176.699585,757.013733 
	C1187.063477,758.621155 1197.395874,760.454041 1207.786621,761.859619 
	C1217.218506,763.135437 1226.709351,763.975281 1236.175171,764.998291 
	C1248.403076,766.319946 1260.622559,767.729370 1272.863525,768.916199 
	C1281.547729,769.758179 1290.262573,770.280212 1298.961792,770.970459 
	C1311.426025,771.959351 1323.887329,772.986206 1336.352417,773.966003 
	C1341.276367,774.353149 1346.201660,774.805542 1351.135132,774.971191 
	C1364.884888,775.433167 1378.639282,775.758179 1392.391724,776.142029 
	C1402.500977,776.424255 1412.612061,776.659851 1422.718506,777.020630 
	C1428.815308,777.238220 1434.904907,777.655640 1441.928955,777.973633 
	C1452.934692,777.932800 1463.009155,777.901611 1473.083740,777.870483 
	C1485.733276,777.575623 1498.382935,777.280762 1511.962158,777.012939 
	C1525.617065,776.962524 1538.342285,776.885010 1551.067383,776.807495 
	C1563.727295,776.535278 1576.387329,776.263062 1589.978149,776.033447 
	C1604.297363,775.979370 1617.685669,775.882751 1631.073975,775.786011 
	C1642.280273,775.523987 1653.485474,775.122375 1664.693115,775.032898 
	C1681.118042,774.901733 1697.544800,774.994019 1714.726562,774.983521 
	C1715.998535,774.747742 1716.514526,774.519409 1717.030640,774.291138 
	C1728.032471,774.248474 1739.034180,774.205688 1750.639160,774.404480 
	C1751.495605,774.869568 1751.789795,774.961670 1752.125122,774.922363 
	C1781.564087,775.799927 1809.401245,782.435425 1834.344116,798.663330 
	C1854.834717,811.994690 1868.814575,830.330750 1874.257690,854.416626 
	C1875.989746,862.080627 1876.249390,870.077332 1877.126587,878.849060 
	C1877.045776,955.236511 1877.020752,1030.696655 1877.004272,1106.156860 
	C1877.004150,1106.483887 1877.121460,1106.810791 1877.183838,1107.137817 
	C1876.534302,1134.124268 1867.613037,1157.742432 1847.503418,1176.166992 
	C1832.172974,1190.212769 1813.670410,1198.859619 1793.698486,1204.272217 
	C1776.706665,1208.877441 1759.440430,1211.317871 1741.741821,1211.081421 
	C1717.418945,1210.756470 1693.087402,1211.128540 1668.761230,1210.966675 
	C1640.005249,1210.775391 1611.250977,1210.348145 1582.496094,1209.995361 
	C1557.073486,1209.683350 1531.650635,1209.387939 1506.229614,1208.967163 
	C1498.466187,1208.838745 1490.708984,1208.319580 1482.392578,1207.750854 
	C1481.544922,1207.593262 1481.253662,1207.664307 1480.962280,1207.735352 
M408.164185,1045.500000 
	C408.164185,979.224060 408.164185,912.948120 408.164185,846.411377 
	C383.610199,846.411377 359.546051,846.411377 334.905823,846.411377 
	C334.905823,877.700745 334.905823,908.772705 334.905823,940.077881 
	C316.650970,940.077881 298.973358,940.077881 280.724396,940.077881 
	C280.724396,908.644714 280.724396,877.576782 280.724396,846.454956 
	C256.084686,846.454956 232.019302,846.454956 207.856506,846.454956 
	C207.856506,937.770142 207.856506,1028.779297 207.856506,1119.664062 
	C232.367310,1119.664062 256.466370,1119.664062 281.076874,1119.664062 
	C281.076874,1084.270630 281.076874,1049.210205 281.076874,1014.197937 
	C299.311707,1014.197937 317.030060,1014.197937 335.185242,1014.197937 
	C335.185242,1049.612061 335.185242,1084.680908 335.185242,1119.705322 
	C359.707306,1119.705322 383.786346,1119.705322 408.164185,1119.705322 
	C408.164185,1095.106812 408.164185,1070.803345 408.164185,1045.500000 
M1607.808472,964.320068 
	C1595.676147,1005.035156 1599.181641,1044.756714 1617.066162,1082.902222 
	C1628.393066,1107.060791 1646.829102,1123.334106 1674.841675,1125.295166 
	C1694.857666,1126.696289 1713.649292,1122.970337 1729.493164,1109.511353 
	C1731.192505,1108.067871 1732.816162,1106.534912 1735.217529,1104.375732 
	C1735.217529,1110.118774 1735.217529,1114.851562 1735.217529,1119.749756 
	C1759.246094,1119.749756 1782.815308,1119.749756 1806.468506,1119.749756 
	C1806.468506,1028.482300 1806.468506,937.466736 1806.468506,846.416992 
	C1782.161133,846.416992 1758.236450,846.416992 1733.826660,846.416992 
	C1733.826660,871.542358 1733.826660,896.406738 1733.826660,922.463989 
	C1727.696899,914.705933 1720.181030,911.178589 1712.059937,909.330200 
	C1704.475708,907.603821 1696.677979,906.459106 1688.915283,905.941406 
	C1667.028809,904.481689 1647.330078,910.060059 1631.160278,925.573486 
	C1620.111938,936.173279 1612.984375,949.221863 1607.808472,964.320068 
M842.150452,974.500000 
	C842.150452,1022.916382 842.150452,1071.332764 842.150452,1119.620605 
	C866.900513,1119.620605 890.959900,1119.620605 915.163086,1119.620605 
	C915.163086,1081.917969 915.132935,1044.595337 915.205444,1007.272827 
	C915.213501,1003.127380 915.519836,998.936829 916.180908,994.846802 
	C918.358215,981.375977 925.456787,974.122192 937.868958,972.303223 
	C954.515320,969.863708 965.017090,976.905762 967.771118,992.506531 
	C968.376648,995.936584 968.782715,999.451538 968.794373,1002.929016 
	C968.918945,1040.085449 968.945679,1077.242310 968.998779,1114.399048 
	C969.001282,1116.168335 968.999146,1117.937500 968.999146,1119.725586 
	C993.326233,1119.725586 1017.070190,1119.725586 1041.163086,1119.725586 
	C1041.163086,1117.653320 1041.163086,1115.852539 1041.163086,1114.051758 
	C1041.163086,1069.061157 1041.206787,1024.070435 1041.110718,979.080139 
	C1041.097900,973.107361 1040.870728,967.053711 1039.894409,961.178528 
	C1035.770874,936.364197 1022.621521,918.642517 998.293152,910.399231 
	C985.252563,905.980469 971.773010,906.505310 958.251526,907.757080 
	C940.756958,909.376770 926.202454,916.095215 915.978760,930.884644 
	C915.864380,931.050110 915.443787,931.003967 914.568176,931.169922 
	C914.568176,902.859192 914.568176,874.658997 914.568176,846.414917 
	C890.208130,846.414917 866.446594,846.414917 842.150513,846.414917 
	C842.150513,888.951477 842.150513,931.225708 842.150452,974.500000 
M1519.531372,1120.001343 
	C1540.436279,1120.001343 1561.341309,1120.001343 1582.553467,1120.001343 
	C1582.553467,1117.464233 1582.553589,1115.651001 1582.553589,1113.837769 
	C1582.553589,1068.845459 1582.569946,1023.853271 1582.529663,978.861023 
	C1582.525391,974.038025 1582.341553,969.204163 1581.986328,964.394165 
	C1579.810669,934.933533 1561.238892,913.280762 1532.398926,906.764771 
	C1519.036987,903.745789 1505.608887,904.691650 1492.210083,906.832458 
	C1477.912109,909.116882 1466.213745,915.683960 1457.650024,927.530518 
	C1457.250122,928.083679 1456.590210,928.448914 1455.224854,929.596252 
	C1455.224854,923.198181 1455.224854,917.800659 1455.224854,912.342834 
	C1430.452393,912.342834 1406.237305,912.342834 1382.040527,912.342834 
	C1382.040527,981.625183 1382.040527,1050.562866 1382.040527,1119.694092 
	C1406.460327,1119.694092 1430.675049,1119.694092 1455.163940,1119.694092 
	C1455.163940,1117.576538 1455.163940,1115.764526 1455.163940,1113.952515 
	C1455.163940,1078.458618 1455.134521,1042.964722 1455.201050,1007.470947 
	C1455.209473,1002.990051 1455.482300,998.479736 1456.043701,994.034973 
	C1458.590332,973.870117 1480.020386,963.057373 1497.776123,973.253723 
	C1501.132324,975.181030 1504.546509,978.768372 1505.734131,982.324341 
	C1507.855103,988.675659 1509.223145,995.577148 1509.291016,1002.264954 
	C1509.630737,1035.754395 1509.446289,1069.249146 1509.446167,1102.741943 
	C1509.446167,1108.349976 1509.446167,1113.957886 1509.446167,1120.001343 
	C1512.625610,1120.001343 1515.585693,1120.001343 1519.531372,1120.001343 
M449.901215,947.403381 
	C448.212433,950.073730 446.388916,952.669128 444.856049,955.426147 
	C432.068756,978.425293 429.508820,1003.336182 431.513824,1028.990845 
	C432.811615,1045.596313 436.949982,1061.524170 445.511169,1075.934570 
	C463.534302,1106.271484 490.878815,1122.470215 525.539246,1125.067261 
	C564.081482,1127.955200 595.724915,1113.852051 617.994141,1081.630371 
	C632.875244,1060.098877 636.732666,1035.383057 636.109863,1009.747620 
	C635.561462,987.173950 630.695801,965.776306 617.408752,947.094788 
	C599.664185,922.146057 574.619141,909.414246 544.691040,906.876221 
	C506.503754,903.637756 474.241394,915.745911 449.901215,947.403381 
M1324.472656,916.987976 
	C1319.751709,914.960510 1315.152466,912.559998 1310.288330,910.970886 
	C1290.391357,904.470703 1269.921265,905.145813 1249.441162,906.715393 
	C1231.033813,908.126160 1213.860718,913.202209 1198.656860,924.134033 
	C1194.939453,926.806885 1192.327637,929.590393 1192.426758,934.561096 
	C1192.506104,938.529907 1191.775879,942.512878 1191.439209,946.492432 
	C1190.477173,957.867188 1189.532471,969.243469 1188.508301,981.489075 
	C1191.089600,980.168091 1192.807129,979.235840 1194.568848,978.396301 
	C1205.662720,973.109314 1216.563232,967.347778 1227.917847,962.695496 
	C1242.020630,956.917297 1256.910645,955.149475 1272.003296,957.797119 
	C1280.141235,959.224609 1284.156372,963.846375 1284.902100,970.961365 
	C1285.662231,978.213196 1281.121338,982.225647 1275.409912,984.672119 
	C1267.950806,987.867310 1260.230957,990.548645 1252.453735,992.887085 
	C1236.383179,997.719177 1220.096558,1001.915039 1205.315918,1010.208984 
	C1189.675659,1018.985413 1178.369019,1031.263916 1174.507935,1049.302246 
	C1172.067139,1060.705688 1172.446655,1072.129883 1174.929932,1083.493774 
	C1179.085693,1102.510620 1190.300537,1115.438721 1208.950073,1121.035889 
	C1216.994141,1123.450195 1225.518555,1124.576050 1233.911865,1125.453125 
	C1253.892822,1127.541748 1270.875854,1120.897339 1284.977417,1106.676147 
	C1285.688477,1105.958984 1286.626831,1105.466919 1288.029053,1104.461792 
	C1288.029053,1110.030151 1288.029053,1114.811401 1288.029053,1119.687256 
	C1309.721680,1119.687256 1331.110474,1119.687256 1352.636475,1119.687256 
	C1352.724731,1118.748535 1352.837524,1118.108154 1352.837646,1117.467773 
	C1352.846802,1067.804077 1353.151367,1018.137573 1352.706665,968.477844 
	C1352.514160,946.971069 1344.526733,928.864136 1324.472656,916.987976 
M694.762329,1112.782959 
	C704.383545,1118.690552 714.845703,1122.237427 725.951111,1124.092773 
	C746.066956,1127.453247 766.124939,1125.050293 786.160950,1123.395386 
	C793.919067,1122.754639 801.586243,1121.000977 809.291382,1119.733154 
	C812.159546,1119.261108 813.312439,1117.792236 813.247375,1114.639282 
	C813.027466,1103.982422 813.163696,1093.318359 813.163696,1082.656982 
	C813.163696,1074.530396 813.163696,1066.403931 813.163696,1058.430420 
	C805.967041,1060.342529 799.187561,1062.545166 792.241211,1063.878174 
	C785.073853,1065.253418 777.760010,1065.947144 770.482422,1066.650391 
	C750.388977,1068.592163 736.382324,1061.327637 730.056763,1044.773804 
	C727.551208,1038.216797 726.211487,1030.964844 725.715820,1023.932434 
	C723.548889,993.187561 741.956909,973.771667 772.777344,973.878052 
	C786.672668,973.926025 800.235229,975.775818 813.163696,983.178467 
	C813.163696,981.096008 813.163696,979.499817 813.163696,977.903625 
	C813.163696,961.911682 813.163696,945.919739 813.163696,929.927795 
	C813.163696,915.644348 812.726746,915.074768 798.716797,911.121460 
	C798.397095,911.031250 798.062073,910.996887 797.738281,910.919434 
	C777.804382,906.147522 757.588867,904.856689 737.264587,907.013916 
	C701.267883,910.834473 675.180176,928.687378 661.961792,962.966858 
	C650.083313,993.771484 650.382385,1025.475830 657.729492,1057.219971 
	C663.001404,1079.998291 673.908691,1099.345581 694.762329,1112.782959 
M1072.836548,1068.500000 
	C1072.836548,1085.582275 1072.836548,1102.664429 1072.836548,1119.594238 
	C1097.575073,1119.594238 1121.622314,1119.594238 1145.483398,1119.594238 
	C1145.483398,1028.284912 1145.483398,937.382874 1145.483398,846.407166 
	C1121.189819,846.407166 1097.263550,846.407166 1072.836548,846.407166 
	C1072.836548,920.275391 1072.836548,993.887695 1072.836548,1068.500000 
z"/>
<path fill="#95C03E" opacity="1.000000" stroke="none" 
	d="
M251.033096,698.724487 
	C223.072418,699.242371 196.087311,704.943298 169.386566,713.582642 
	C171.330597,705.682007 173.626816,698.224792 176.317245,690.790283 
	C202.161896,685.202759 227.587479,679.476746 253.067780,674.005615 
	C312.462372,661.252747 371.849670,648.462280 431.304565,635.995300 
	C475.328888,626.763916 519.438660,617.936646 563.542419,609.089172 
	C586.156433,604.552673 608.798828,600.132080 631.503418,596.079041 
	C662.045227,590.627075 692.600037,585.192749 723.264404,580.503357 
	C742.107422,577.621704 761.121277,575.063782 780.137085,574.287231 
	C810.216858,573.058594 840.393005,572.963928 870.356750,576.932251 
	C897.160278,580.481995 924.035400,583.709106 950.661377,588.331482 
	C991.847534,595.481567 1032.811157,603.904114 1073.943848,611.375793 
	C1094.364746,615.085327 1115.068726,615.021423 1135.461548,611.469849 
	C1156.533325,607.800110 1177.490601,603.275818 1198.282715,598.237366 
	C1241.401611,587.788452 1285.152710,582.417847 1329.406372,581.122314 
	C1369.184204,579.957764 1408.907349,581.217834 1448.358643,586.939636 
	C1477.742798,591.201294 1507.210083,595.105164 1536.385254,600.538025 
	C1571.126465,607.007324 1605.826538,614.001099 1640.128784,622.454041 
	C1695.111938,636.003296 1749.750732,650.950012 1804.543091,665.275635 
	C1811.042114,666.974792 1817.591187,668.482910 1824.373047,670.320923 
	C1829.013428,685.116699 1833.397583,699.671143 1837.781738,714.225586 
	C1823.033569,710.353821 1808.431274,705.726440 1793.491943,702.845520 
	C1781.177979,700.470825 1768.464966,700.164856 1755.154297,698.595764 
	C1753.727661,698.151855 1753.075806,697.969055 1752.423828,697.969055 
	C1723.859009,697.969299 1695.294189,697.974792 1666.729492,698.037109 
	C1665.477905,698.039795 1664.227295,698.581299 1662.976318,698.871704 
	C1635.987671,698.928284 1608.999023,698.984802 1581.071899,699.011963 
	C1542.174561,698.994934 1504.215698,698.998047 1466.256836,699.055298 
	C1464.838257,699.057434 1463.420532,699.585571 1462.002319,699.868591 
	C1439.398315,699.229858 1416.777710,698.937927 1394.194824,697.859131 
	C1369.462036,696.677612 1344.749268,694.966675 1320.055664,693.114990 
	C1300.674561,691.661682 1281.295410,689.994568 1261.988525,687.784424 
	C1239.066040,685.160339 1216.086304,682.628540 1193.375488,678.659363 
	C1159.550659,672.747864 1125.697144,666.631470 1092.312256,658.685181 
	C1064.071655,651.963440 1036.503296,642.435547 1008.565857,634.398376 
	C1005.446716,633.500977 1001.635010,633.437134 998.525635,634.323669 
	C968.817627,642.793823 939.479248,652.760071 909.464661,659.901062 
	C877.056091,667.611572 844.145325,673.414429 811.251831,678.821716 
	C783.421936,683.396484 755.335388,686.492615 727.301697,689.714417 
	C710.308655,691.667358 693.215332,692.851379 676.139587,693.956665 
	C651.253174,695.567444 626.344788,696.849304 601.439819,698.159607 
	C592.639221,698.622681 583.821350,698.757690 574.073120,699.013184 
	C538.083130,698.998108 503.031281,699.012329 467.512787,699.016296 
	C453.022400,699.038391 438.998718,699.070679 424.975006,699.102966 
	C411.624695,699.058777 398.274414,699.014587 384.143677,698.661987 
	C382.548706,698.240784 381.734222,698.030029 380.919556,698.029297 
	C338.884735,697.992493 296.849915,697.966797 254.815125,697.985107 
	C253.554352,697.985657 252.293777,698.467224 251.033096,698.724487 
z"/>
<path fill="#FEFEFE" opacity="1.000000" stroke="none" 
	d="
M175.923035,690.767578 
	C173.626816,698.224792 171.330597,705.682007 168.996582,713.524292 
	C161.942749,716.943726 154.926712,719.978027 147.536377,723.015625 
	C157.329254,680.885315 171.702957,640.238098 190.434525,601.152771 
	C218.392853,542.814880 254.406708,489.862457 297.623169,441.797424 
	C371.739990,359.365265 459.876862,295.765137 559.395203,247.567078 
	C643.578247,206.796097 732.023865,179.445297 824.185486,163.869217 
	C869.705566,156.175919 915.515503,151.513092 961.659546,149.779007 
	C1016.339172,147.724152 1070.830078,149.652756 1125.204590,155.790283 
	C1237.029419,168.412491 1344.077881,197.892273 1445.617432,246.635895 
	C1528.604004,286.473297 1603.919434,337.533936 1670.346924,401.483124 
	C1724.861450,453.963959 1770.604980,513.072449 1805.869751,580.126160 
	C1828.942871,623.998108 1846.545166,669.975830 1858.429077,718.119446 
	C1858.746826,719.406555 1858.910645,720.731628 1859.151123,722.445740 
	C1853.712158,720.746277 1848.268799,718.638916 1842.824341,716.534485 
	C1841.298462,715.944702 1839.769287,715.363281 1838.011719,714.501770 
	C1833.397583,699.671143 1829.013428,685.116699 1824.328857,669.932861 
	C1815.903442,649.570923 1808.024658,629.731506 1799.534302,610.157410 
	C1796.026245,602.069519 1791.206787,594.550415 1786.993408,586.418457 
	C1786.257690,584.417603 1785.661377,582.682312 1784.743896,581.137756 
	C1775.757080,566.007141 1767.161377,550.620239 1757.599487,535.860107 
	C1737.315674,504.548859 1714.474365,475.168274 1688.820679,447.607239 
	C1681.925293,440.214233 1675.407593,432.879028 1668.398682,426.047821 
	C1657.110107,415.045654 1645.613281,404.249176 1633.979370,393.612061 
	C1626.648071,386.908752 1619.139893,380.353912 1611.300293,374.261078 
	C1595.496826,361.978912 1579.519897,349.911987 1563.392334,338.058594 
	C1556.906128,333.291351 1549.835815,329.318848 1542.970459,324.644104 
	C1542.482666,323.825531 1542.134277,323.230133 1541.618164,322.886139 
	C1504.710815,298.284363 1465.596802,277.643188 1425.706055,258.404388 
	C1424.246338,257.700378 1422.586060,257.412048 1420.810059,256.659668 
	C1410.902222,252.030624 1401.328735,247.363235 1391.483032,243.367004 
	C1349.914429,226.495026 1307.591064,211.853363 1263.629150,200.970551 
	C1257.326172,199.377838 1251.450806,197.615402 1245.472778,196.331833 
	C1224.461060,191.820343 1203.512939,186.902939 1182.351562,183.229309 
	C1162.354858,179.757874 1142.145996,177.439987 1121.981323,175.024963 
	C1105.416748,173.041107 1088.801392,171.380081 1072.168579,170.096237 
	C1058.130249,169.012680 1044.037109,168.208527 1029.963013,168.121674 
	C1010.188843,167.999664 990.400757,168.386932 970.635437,169.055908 
	C951.266785,169.711456 931.909241,170.833923 912.566284,172.058899 
	C901.020813,172.790054 889.473938,173.802917 877.997498,175.244873 
	C862.276428,177.220154 846.584961,179.500000 830.950256,182.071884 
	C818.907288,184.052933 806.971313,186.685196 794.581970,189.028183 
	C793.056458,189.310867 791.947449,189.648727 790.815491,189.867645 
	C754.549255,196.881516 718.974731,206.556137 683.955261,218.214844 
	C667.487000,223.697464 651.305481,230.041321 634.622375,236.037109 
	C630.198425,237.546265 626.001099,238.704437 622.116760,240.529053 
	C591.025269,255.133911 559.859375,269.591827 529.012207,284.699158 
	C517.590210,290.293060 506.959930,297.503479 495.619324,304.022827 
	C473.205414,318.816162 450.678528,332.926361 429.214874,348.501740 
	C410.313049,362.217957 392.423798,377.360321 374.444611,392.302704 
	C366.810913,398.647003 360.089111,406.088531 352.669739,413.216736 
	C350.822449,414.571960 349.024323,415.527832 347.729156,416.943817 
	C327.762512,438.772095 307.083466,460.010101 288.128937,482.688263 
	C260.363586,515.908142 236.911957,552.176453 216.825699,590.948059 
	C207.851120,610.091736 198.675491,628.829712 190.703705,648.066589 
	C184.947647,661.956665 180.792313,676.510010 175.923035,690.767578 
z"/>
<path fill="#E0A98A" opacity="1.000000" stroke="none" 
	d="
M1877.419922,1106.786011 
	C1877.121460,1106.810791 1877.004150,1106.483887 1877.004272,1106.156860 
	C1877.020752,1030.696655 1877.045776,955.236511 1877.159424,879.301819 
	C1877.498901,880.422974 1877.967773,882.018555 1877.968628,883.614319 
	C1878.004761,956.403259 1878.002075,1029.192261 1877.985718,1101.981201 
	C1877.985352,1103.465576 1877.770630,1104.949829 1877.419922,1106.786011 
z"/>
<path fill="#D17351" opacity="1.000000" stroke="none" 
	d="
M128.547943,881.287109 
	C128.874619,881.958984 128.990875,882.953186 128.990829,883.947388 
	C128.987762,956.999451 128.975464,1030.051514 128.888306,1103.569580 
	C128.542007,1102.612061 128.035263,1101.188599 128.034500,1099.765015 
	C127.995964,1028.033813 127.999535,956.302673 128.012421,884.571472 
	C128.012604,883.584106 128.189072,882.596802 128.547943,881.287109 
z"/>
<path fill="#E0A98A" opacity="1.000000" stroke="none" 
	d="
M550.790283,780.561890 
	C507.046417,780.910522 463.008911,780.950073 418.471497,780.789551 
	C417.971588,780.589478 417.911285,780.215820 417.911285,780.215820 
	C430.869873,780.144165 443.828369,780.024353 456.787018,780.010742 
	C486.203888,779.979736 515.620789,779.996521 545.037720,780.011780 
	C546.857422,780.012695 548.677063,780.168945 550.790283,780.561890 
z"/>
<path fill="#AFA334" opacity="1.000000" stroke="none" 
	d="
M251.495605,698.769043 
	C252.293777,698.467224 253.554352,697.985657 254.815125,697.985107 
	C296.849915,697.966797 338.884735,697.992493 380.919556,698.029297 
	C381.734222,698.030029 382.548706,698.240784 383.675995,698.620728 
	C339.978516,698.863159 295.968292,698.838379 251.495605,698.769043 
z"/>
<path fill="#B1A033" opacity="1.000000" stroke="none" 
	d="
M1462.467773,699.921875 
	C1463.420532,699.585571 1464.838257,699.057434 1466.256836,699.055298 
	C1504.215698,698.998047 1542.174561,698.994934 1580.608521,699.022827 
	C1579.820312,699.331299 1578.557495,699.831787 1577.293579,699.834290 
	C1539.173462,699.911438 1501.053345,699.939514 1462.467773,699.921875 
z"/>
<path fill="#B19E33" opacity="1.000000" stroke="none" 
	d="
M467.979462,699.026489 
	C503.031281,699.012329 538.083130,698.998108 573.609985,699.025635 
	C569.830261,699.368896 565.576050,699.922852 561.320801,699.931274 
	C530.554321,699.991760 499.787689,699.942017 468.527222,699.682617 
	C468.033386,699.438049 467.979462,699.026550 467.979462,699.026489 
z"/>
<path fill="#B59631" opacity="1.000000" stroke="none" 
	d="
M1663.443848,698.927246 
	C1664.227295,698.581299 1665.477905,698.039795 1666.729492,698.037109 
	C1695.294189,697.974792 1723.859009,697.969299 1752.423828,697.969055 
	C1753.075806,697.969055 1753.727661,698.151855 1754.693970,698.514526 
	C1724.642700,698.847412 1694.277100,698.915100 1663.443848,698.927246 
z"/>
<path fill="#D17351" opacity="1.000000" stroke="none" 
	d="
M408.102722,1205.224121 
	C422.430908,1205.152832 436.759064,1205.081543 451.552856,1205.075317 
	C450.269897,1205.426758 448.522675,1205.951904 446.772522,1205.961792 
	C434.147644,1206.033936 421.522186,1206.001709 408.467163,1205.793335 
	C408.037445,1205.584106 408.102722,1205.224121 408.102722,1205.224121 
z"/>
<path fill="#E0A98A" opacity="1.000000" stroke="none" 
	d="
M407.632782,1205.141968 
	C408.102722,1205.224121 408.037445,1205.584106 407.996704,1205.762207 
	C393.910004,1205.947510 379.864044,1205.954590 365.348358,1205.870728 
	C366.809906,1205.520020 368.740295,1205.043213 370.672607,1205.035400 
	C382.835754,1204.985474 394.999390,1205.039795 407.632782,1205.141968 
z"/>
<path fill="#BE6E2C" opacity="1.000000" stroke="none" 
	d="
M467.512787,699.016357 
	C467.979462,699.026550 468.033386,699.438049 468.066589,699.641846 
	C453.933868,699.779907 439.767914,699.714111 425.288483,699.375671 
	C438.998718,699.070679 453.022400,699.038391 467.512787,699.016357 
z"/>
<path fill="#D98F6F" opacity="1.000000" stroke="none" 
	d="
M1630.785034,775.472168 
	C1617.685669,775.882751 1604.297363,775.979370 1590.444580,776.002686 
	C1596.042480,775.652161 1602.102539,775.237000 1608.167969,775.133057 
	C1615.608276,775.005493 1623.053223,775.138062 1630.785034,775.472168 
z"/>
<path fill="#D88E6D" opacity="1.000000" stroke="none" 
	d="
M1550.774414,776.498901 
	C1538.342285,776.885010 1525.617065,776.962524 1512.426025,776.965210 
	C1517.853394,776.623413 1523.744385,776.222168 1529.640503,776.124390 
	C1536.585205,776.009155 1543.534302,776.156738 1550.774414,776.498901 
z"/>
<path fill="#E0A98A" opacity="1.000000" stroke="none" 
	d="
M1472.790283,777.561401 
	C1463.009155,777.901611 1452.934692,777.932800 1442.388062,777.917236 
	C1445.639648,777.580383 1449.360840,777.088867 1453.087402,777.044678 
	C1459.555542,776.968079 1466.026733,777.168213 1472.790283,777.561401 
z"/>
<path fill="#D17251" opacity="1.000000" stroke="none" 
	d="
M348.698547,779.591614 
	C340.314972,779.894531 331.611969,779.931030 322.442932,779.902283 
	C330.777649,779.666382 339.578369,779.495789 348.698547,779.591614 
z"/>
<path fill="#F0D6C6" opacity="1.000000" stroke="none" 
	d="
M1716.728760,774.195679 
	C1716.514526,774.519409 1715.998535,774.747742 1715.187622,774.953125 
	C1715.404053,774.653564 1715.915527,774.376892 1716.728760,774.195679 
z"/>
<path fill="#F0D7C7" opacity="1.000000" stroke="none" 
	d="
M1481.221436,1207.828369 
	C1481.253662,1207.664307 1481.544922,1207.593262 1481.930664,1207.679932 
	C1481.843506,1207.865479 1481.662109,1207.893555 1481.221436,1207.828369 
z"/>
<path fill="#F0D7C7" opacity="1.000000" stroke="none" 
	d="
M557.223267,1204.826660 
	C557.253906,1204.658203 557.545898,1204.580933 557.933350,1204.660400 
	C557.847290,1204.850708 557.665894,1204.884399 557.223267,1204.826660 
z"/>
<path fill="#F0D7C7" opacity="1.000000" stroke="none" 
	d="
M417.667114,780.181396 
	C417.911285,780.215820 417.971588,780.589478 418.005524,780.775269 
	C417.720428,781.004028 417.438782,780.920654 417.078674,780.517639 
	C416.962799,780.324219 417.422974,780.146912 417.667114,780.181396 
z"/>
<path fill="#F0D6C6" opacity="1.000000" stroke="none" 
	d="
M1752.011230,774.683960 
	C1751.789795,774.961670 1751.495605,774.869568 1751.102905,774.454468 
	C1751.274658,774.323730 1751.585938,774.384583 1752.011230,774.683960 
z"/>
<path fill="#363092" opacity="1.000000" stroke="none" 
	d="
M408.164185,1046.000000 
	C408.164185,1070.803345 408.164185,1095.106812 408.164185,1119.705322 
	C383.786346,1119.705322 359.707306,1119.705322 335.185242,1119.705322 
	C335.185242,1084.680908 335.185242,1049.612061 335.185242,1014.197937 
	C317.030060,1014.197937 299.311707,1014.197937 281.076874,1014.197937 
	C281.076874,1049.210205 281.076874,1084.270630 281.076874,1119.664062 
	C256.466370,1119.664062 232.367310,1119.664062 207.856506,1119.664062 
	C207.856506,1028.779297 207.856506,937.770142 207.856506,846.454956 
	C232.019302,846.454956 256.084686,846.454956 280.724396,846.454956 
	C280.724396,877.576782 280.724396,908.644714 280.724396,940.077881 
	C298.973358,940.077881 316.650970,940.077881 334.905823,940.077881 
	C334.905823,908.772705 334.905823,877.700745 334.905823,846.411377 
	C359.546051,846.411377 383.610199,846.411377 408.164185,846.411377 
	C408.164185,912.948120 408.164185,979.224060 408.164185,1046.000000 
z"/>
<path fill="#363091" opacity="1.000000" stroke="none" 
	d="
M1607.911377,963.937988 
	C1612.984375,949.221863 1620.111938,936.173279 1631.160278,925.573486 
	C1647.330078,910.060059 1667.028809,904.481689 1688.915283,905.941406 
	C1696.677979,906.459106 1704.475708,907.603821 1712.059937,909.330200 
	C1720.181030,911.178589 1727.696899,914.705933 1733.826660,922.463989 
	C1733.826660,896.406738 1733.826660,871.542358 1733.826660,846.416992 
	C1758.236450,846.416992 1782.161133,846.416992 1806.468506,846.416992 
	C1806.468506,937.466736 1806.468506,1028.482300 1806.468506,1119.749756 
	C1782.815308,1119.749756 1759.246094,1119.749756 1735.217529,1119.749756 
	C1735.217529,1114.851562 1735.217529,1110.118774 1735.217529,1104.375732 
	C1732.816162,1106.534912 1731.192505,1108.067871 1729.493164,1109.511353 
	C1713.649292,1122.970337 1694.857666,1126.696289 1674.841675,1125.295166 
	C1646.829102,1123.334106 1628.393066,1107.060791 1617.066162,1082.902222 
	C1599.181641,1044.756714 1595.676147,1005.035156 1607.911377,963.937988 
M1662.030762,1020.228882 
	C1664.053833,1028.234985 1664.920044,1036.781006 1668.349854,1044.130737 
	C1674.743408,1057.831909 1686.313110,1064.997192 1701.713257,1063.943359 
	C1716.316162,1062.944092 1725.365112,1054.082275 1730.019775,1040.796387 
	C1735.925049,1023.940796 1735.809204,1006.764099 1730.373657,989.840759 
	C1725.427368,974.440918 1713.716797,965.223633 1700.081543,965.000488 
	C1684.748169,964.749451 1671.957764,973.720337 1666.094482,988.852417 
	C1662.291748,998.666809 1661.683472,1008.914185 1662.030762,1020.228882 
z"/>
<path fill="#363091" opacity="1.000000" stroke="none" 
	d="
M842.150513,974.000000 
	C842.150513,931.225708 842.150513,888.951477 842.150513,846.414917 
	C866.446594,846.414917 890.208130,846.414917 914.568176,846.414917 
	C914.568176,874.658997 914.568176,902.859192 914.568176,931.169922 
	C915.443787,931.003967 915.864380,931.050110 915.978760,930.884644 
	C926.202454,916.095215 940.756958,909.376770 958.251526,907.757080 
	C971.773010,906.505310 985.252563,905.980469 998.293152,910.399231 
	C1022.621521,918.642517 1035.770874,936.364197 1039.894409,961.178528 
	C1040.870728,967.053711 1041.097900,973.107361 1041.110718,979.080139 
	C1041.206787,1024.070435 1041.163086,1069.061157 1041.163086,1114.051758 
	C1041.163086,1115.852539 1041.163086,1117.653320 1041.163086,1119.725586 
	C1017.070190,1119.725586 993.326233,1119.725586 968.999146,1119.725586 
	C968.999146,1117.937500 969.001282,1116.168335 968.998779,1114.399048 
	C968.945679,1077.242310 968.918945,1040.085449 968.794373,1002.929016 
	C968.782715,999.451538 968.376648,995.936584 967.771118,992.506531 
	C965.017090,976.905762 954.515320,969.863708 937.868958,972.303223 
	C925.456787,974.122192 918.358215,981.375977 916.180908,994.846802 
	C915.519836,998.936829 915.213501,1003.127380 915.205444,1007.272827 
	C915.132935,1044.595337 915.163086,1081.917969 915.163086,1119.620605 
	C890.959900,1119.620605 866.900513,1119.620605 842.150452,1119.620605 
	C842.150452,1071.332764 842.150452,1022.916382 842.150513,974.000000 
z"/>
<path fill="#363092" opacity="1.000000" stroke="none" 
	d="
M1519.038574,1120.001343 
	C1515.585693,1120.001343 1512.625610,1120.001343 1509.446167,1120.001343 
	C1509.446167,1113.957886 1509.446167,1108.349976 1509.446167,1102.741943 
	C1509.446289,1069.249146 1509.630737,1035.754395 1509.291016,1002.264954 
	C1509.223145,995.577148 1507.855103,988.675659 1505.734131,982.324341 
	C1504.546509,978.768372 1501.132324,975.181030 1497.776123,973.253723 
	C1480.020386,963.057373 1458.590332,973.870117 1456.043701,994.034973 
	C1455.482300,998.479736 1455.209473,1002.990051 1455.201050,1007.470947 
	C1455.134521,1042.964722 1455.163940,1078.458618 1455.163940,1113.952515 
	C1455.163940,1115.764526 1455.163940,1117.576538 1455.163940,1119.694092 
	C1430.675049,1119.694092 1406.460327,1119.694092 1382.040527,1119.694092 
	C1382.040527,1050.562866 1382.040527,981.625183 1382.040527,912.342834 
	C1406.237305,912.342834 1430.452393,912.342834 1455.224854,912.342834 
	C1455.224854,917.800659 1455.224854,923.198181 1455.224854,929.596252 
	C1456.590210,928.448914 1457.250122,928.083679 1457.650024,927.530518 
	C1466.213745,915.683960 1477.912109,909.116882 1492.210083,906.832458 
	C1505.608887,904.691650 1519.036987,903.745789 1532.398926,906.764771 
	C1561.238892,913.280762 1579.810669,934.933533 1581.986328,964.394165 
	C1582.341553,969.204163 1582.525391,974.038025 1582.529663,978.861023 
	C1582.569946,1023.853271 1582.553589,1068.845459 1582.553589,1113.837769 
	C1582.553589,1115.651001 1582.553467,1117.464233 1582.553467,1120.001343 
	C1561.341309,1120.001343 1540.436279,1120.001343 1519.038574,1120.001343 
z"/>
<path fill="#363091" opacity="1.000000" stroke="none" 
	d="
M450.084106,947.096558 
	C474.241394,915.745911 506.503754,903.637756 544.691040,906.876221 
	C574.619141,909.414246 599.664185,922.146057 617.408752,947.094788 
	C630.695801,965.776306 635.561462,987.173950 636.109863,1009.747620 
	C636.732666,1035.383057 632.875244,1060.098877 617.994141,1081.630371 
	C595.724915,1113.852051 564.081482,1127.955200 525.539246,1125.067261 
	C490.878815,1122.470215 463.534302,1106.271484 445.511169,1075.934570 
	C436.949982,1061.524170 432.811615,1045.596313 431.513824,1028.990845 
	C429.508820,1003.336182 432.068756,978.425293 444.856049,955.426147 
	C446.388916,952.669128 448.212433,950.073730 450.084106,947.096558 
M494.928406,1002.571228 
	C495.293884,1012.147156 494.499207,1021.943848 496.271057,1031.252075 
	C499.749878,1049.527466 514.149597,1060.933105 532.169678,1061.447266 
	C551.013489,1061.985107 565.339233,1051.795410 570.517395,1033.660889 
	C574.303223,1020.402222 574.135315,1006.991150 569.995789,993.817383 
	C564.847107,977.431946 551.290283,967.255432 534.841125,967.000305 
	C513.408142,966.667908 499.265625,978.984314 494.928406,1002.571228 
z"/>
<path fill="#363092" opacity="1.000000" stroke="none" 
	d="
M1324.799316,917.152039 
	C1344.526733,928.864136 1352.514160,946.971069 1352.706665,968.477844 
	C1353.151367,1018.137573 1352.846802,1067.804077 1352.837646,1117.467773 
	C1352.837524,1118.108154 1352.724731,1118.748535 1352.636475,1119.687256 
	C1331.110474,1119.687256 1309.721680,1119.687256 1288.029053,1119.687256 
	C1288.029053,1114.811401 1288.029053,1110.030151 1288.029053,1104.461792 
	C1286.626831,1105.466919 1285.688477,1105.958984 1284.977417,1106.676147 
	C1270.875854,1120.897339 1253.892822,1127.541748 1233.911865,1125.453125 
	C1225.518555,1124.576050 1216.994141,1123.450195 1208.950073,1121.035889 
	C1190.300537,1115.438721 1179.085693,1102.510620 1174.929932,1083.493774 
	C1172.446655,1072.129883 1172.067139,1060.705688 1174.507935,1049.302246 
	C1178.369019,1031.263916 1189.675659,1018.985413 1205.315918,1010.208984 
	C1220.096558,1001.915039 1236.383179,997.719177 1252.453735,992.887085 
	C1260.230957,990.548645 1267.950806,987.867310 1275.409912,984.672119 
	C1281.121338,982.225647 1285.662231,978.213196 1284.902100,970.961365 
	C1284.156372,963.846375 1280.141235,959.224609 1272.003296,957.797119 
	C1256.910645,955.149475 1242.020630,956.917297 1227.917847,962.695496 
	C1216.563232,967.347778 1205.662720,973.109314 1194.568848,978.396301 
	C1192.807129,979.235840 1191.089600,980.168091 1188.508301,981.489075 
	C1189.532471,969.243469 1190.477173,957.867188 1191.439209,946.492432 
	C1191.775879,942.512878 1192.506104,938.529907 1192.426758,934.561096 
	C1192.327637,929.590393 1194.939453,926.806885 1198.656860,924.134033 
	C1213.860718,913.202209 1231.033813,908.126160 1249.441162,906.715393 
	C1269.921265,905.145813 1290.391357,904.470703 1310.288330,910.970886 
	C1315.152466,912.559998 1319.751709,914.960510 1324.799316,917.152039 
M1293.173584,1042.707275 
	C1293.529053,1036.733276 1293.884521,1030.759277 1294.227295,1024.996582 
	C1285.619751,1027.488403 1277.676758,1029.287109 1270.116577,1032.110840 
	C1261.802490,1035.216064 1253.305542,1038.424438 1245.883789,1043.151001 
	C1239.193237,1047.411865 1236.660522,1054.888672 1238.908936,1062.957397 
	C1241.193726,1071.157227 1247.578735,1074.856201 1255.444214,1076.088745 
	C1275.048096,1079.160400 1291.191406,1065.155762 1293.173584,1042.707275 
z"/>
<path fill="#363092" opacity="1.000000" stroke="none" 
	d="
M694.466003,1112.572510 
	C673.908691,1099.345581 663.001404,1079.998291 657.729492,1057.219971 
	C650.382385,1025.475830 650.083313,993.771484 661.961792,962.966858 
	C675.180176,928.687378 701.267883,910.834473 737.264587,907.013916 
	C757.588867,904.856689 777.804382,906.147522 797.738281,910.919434 
	C798.062073,910.996887 798.397095,911.031250 798.716797,911.121460 
	C812.726746,915.074768 813.163696,915.644348 813.163696,929.927795 
	C813.163696,945.919739 813.163696,961.911682 813.163696,977.903625 
	C813.163696,979.499817 813.163696,981.096008 813.163696,983.178467 
	C800.235229,975.775818 786.672668,973.926025 772.777344,973.878052 
	C741.956909,973.771667 723.548889,993.187561 725.715820,1023.932434 
	C726.211487,1030.964844 727.551208,1038.216797 730.056763,1044.773804 
	C736.382324,1061.327637 750.388977,1068.592163 770.482422,1066.650391 
	C777.760010,1065.947144 785.073853,1065.253418 792.241211,1063.878174 
	C799.187561,1062.545166 805.967041,1060.342529 813.163696,1058.430420 
	C813.163696,1066.403931 813.163696,1074.530396 813.163696,1082.656982 
	C813.163696,1093.318359 813.027466,1103.982422 813.247375,1114.639282 
	C813.312439,1117.792236 812.159546,1119.261108 809.291382,1119.733154 
	C801.586243,1121.000977 793.919067,1122.754639 786.160950,1123.395386 
	C766.124939,1125.050293 746.066956,1127.453247 725.951111,1124.092773 
	C714.845703,1122.237427 704.383545,1118.690552 694.466003,1112.572510 
z"/>
<path fill="#363091" opacity="1.000000" stroke="none" 
	d="
M1072.836548,1068.000000 
	C1072.836548,993.887695 1072.836548,920.275391 1072.836548,846.407166 
	C1097.263550,846.407166 1121.189819,846.407166 1145.483398,846.407166 
	C1145.483398,937.382874 1145.483398,1028.284912 1145.483398,1119.594238 
	C1121.622314,1119.594238 1097.575073,1119.594238 1072.836548,1119.594238 
	C1072.836548,1102.664429 1072.836548,1085.582275 1072.836548,1068.000000 
z"/>
<path fill="#FBF319" opacity="1.000000" stroke="none" 
	d="
M176.317261,690.790283 
	C180.792313,676.510010 184.947647,661.956665 190.703705,648.066589 
	C198.675491,628.829712 207.851120,610.091736 217.278687,590.977783 
	C223.165100,590.590759 228.283936,590.363159 233.403046,590.141846 
	C248.802155,589.476074 264.201569,588.817871 279.600464,588.147217 
	C294.832947,587.483765 310.063263,586.767273 325.297699,586.152405 
	C336.739685,585.690674 348.195435,585.520935 359.629333,584.920898 
	C376.489227,584.036011 393.333069,582.849976 410.187897,581.862854 
	C416.962311,581.466064 423.757172,581.395752 430.526184,580.934326 
	C449.000763,579.674866 467.463562,578.243042 485.936951,576.965027 
	C496.827118,576.211670 507.743195,575.801575 518.621582,574.916931 
	C537.221375,573.404358 555.799438,571.626892 574.388977,569.986938 
	C586.234070,568.942017 598.111755,568.197693 609.924683,566.871399 
	C631.875366,564.406860 653.825073,561.875610 675.707642,558.878906 
	C693.602173,556.428406 711.542786,553.950745 729.206421,550.257996 
	C760.144958,543.789856 791.347473,540.232178 822.892334,540.296753 
	C837.413330,540.326477 851.993530,541.446899 866.435059,543.068481 
	C886.553955,545.327637 906.742065,547.634155 926.584351,551.530762 
	C953.471191,556.810852 980.062744,563.598206 1006.773254,569.772095 
	C1031.289062,575.438721 1055.635376,581.828674 1080.828979,584.180481 
	C1097.651611,585.750793 1114.360962,585.172607 1130.662476,581.333557 
	C1154.463745,575.728088 1178.124512,569.414612 1201.602173,562.569885 
	C1247.654053,549.143799 1294.768311,543.471252 1342.519409,542.236328 
	C1355.288818,541.906128 1368.090576,542.621765 1380.872437,543.020386 
	C1398.437988,543.568298 1416.008545,544.074707 1433.558105,544.969299 
	C1448.084717,545.709778 1462.587646,546.940796 1477.094116,548.044250 
	C1485.330566,548.670715 1493.563599,549.378357 1501.779907,550.224915 
	C1516.030640,551.693420 1530.264771,553.321350 1544.510498,554.839294 
	C1558.131226,556.290588 1571.769287,557.584961 1585.378418,559.136963 
	C1598.312378,560.612000 1611.221191,562.311829 1624.136475,563.947998 
	C1637.691895,565.665222 1651.252197,567.349243 1664.791748,569.184448 
	C1680.614502,571.329224 1696.426025,573.561462 1712.226074,575.867310 
	C1727.215820,578.054932 1742.177612,580.433960 1757.164917,582.638611 
	C1767.092407,584.098938 1777.043457,585.400208 1786.983887,586.772583 
	C1791.206787,594.550415 1796.026245,602.069519 1799.534302,610.157410 
	C1808.024658,629.731506 1815.903442,649.570923 1824.072876,669.691528 
	C1817.591187,668.482910 1811.042114,666.974792 1804.543091,665.275635 
	C1749.750732,650.950012 1695.111938,636.003296 1640.128784,622.454041 
	C1605.826538,614.001099 1571.126465,607.007324 1536.385254,600.538025 
	C1507.210083,595.105164 1477.742798,591.201294 1448.358643,586.939636 
	C1408.907349,581.217834 1369.184204,579.957764 1329.406372,581.122314 
	C1285.152710,582.417847 1241.401611,587.788452 1198.282715,598.237366 
	C1177.490601,603.275818 1156.533325,607.800110 1135.461548,611.469849 
	C1115.068726,615.021423 1094.364746,615.085327 1073.943848,611.375793 
	C1032.811157,603.904114 991.847534,595.481567 950.661377,588.331482 
	C924.035400,583.709106 897.160278,580.481995 870.356750,576.932251 
	C840.393005,572.963928 810.216858,573.058594 780.137085,574.287231 
	C761.121277,575.063782 742.107422,577.621704 723.264404,580.503357 
	C692.600037,585.192749 662.045227,590.627075 631.503418,596.079041 
	C608.798828,600.132080 586.156433,604.552673 563.542419,609.089172 
	C519.438660,617.936646 475.328888,626.763916 431.304565,635.995300 
	C371.849670,648.462280 312.462372,661.252747 253.067780,674.005615 
	C227.587479,679.476746 202.161896,685.202759 176.317261,690.790283 
z"/>
<path fill="#357441" opacity="1.000000" stroke="none" 
	d="
M1786.993408,586.418518 
	C1777.043457,585.400208 1767.092407,584.098938 1757.164917,582.638611 
	C1742.177612,580.433960 1727.215820,578.054932 1712.226074,575.867310 
	C1696.426025,573.561462 1680.614502,571.329224 1664.791748,569.184448 
	C1651.252197,567.349243 1637.691895,565.665222 1624.136475,563.947998 
	C1611.221191,562.311829 1598.312378,560.612000 1585.378418,559.136963 
	C1571.769287,557.584961 1558.131226,556.290588 1544.510498,554.839294 
	C1530.264771,553.321350 1516.030640,551.693420 1501.779907,550.224915 
	C1493.563599,549.378357 1485.330566,548.670715 1477.094116,548.044250 
	C1462.587646,546.940796 1448.084717,545.709778 1433.558105,544.969299 
	C1416.008545,544.074707 1398.437988,543.568298 1380.872437,543.020386 
	C1368.090576,542.621765 1355.288818,541.906128 1342.519409,542.236328 
	C1294.768311,543.471252 1247.654053,549.143799 1201.602173,562.569885 
	C1178.124512,569.414612 1154.463745,575.728088 1130.662476,581.333557 
	C1114.360962,585.172607 1097.651611,585.750793 1080.828979,584.180481 
	C1055.635376,581.828674 1031.289062,575.438721 1006.773254,569.772095 
	C980.062744,563.598206 953.471191,556.810852 926.584351,551.530762 
	C906.742065,547.634155 886.553955,545.327637 866.435059,543.068481 
	C851.993530,541.446899 837.413330,540.326477 822.892334,540.296753 
	C791.347473,540.232178 760.144958,543.789856 729.206421,550.257996 
	C711.542786,553.950745 693.602173,556.428406 675.707642,558.878906 
	C653.825073,561.875610 631.875366,564.406860 609.924683,566.871399 
	C598.111755,568.197693 586.234070,568.942017 574.388977,569.986938 
	C555.799438,571.626892 537.221375,573.404358 518.621582,574.916931 
	C507.743195,575.801575 496.827118,576.211670 485.936951,576.965027 
	C467.463562,578.243042 449.000763,579.674866 430.526184,580.934326 
	C423.757172,581.395752 416.962311,581.466064 410.187897,581.862854 
	C393.333069,582.849976 376.489227,584.036011 359.629333,584.920898 
	C348.195435,585.520935 336.739685,585.690674 325.297699,586.152405 
	C310.063263,586.767273 294.832947,587.483765 279.600464,588.147217 
	C264.201569,588.817871 248.802155,589.476074 233.403046,590.141846 
	C228.283936,590.363159 223.165100,590.590759 217.593140,590.785767 
	C236.911957,552.176453 260.363586,515.908142 288.128937,482.688263 
	C307.083466,460.010101 327.762512,438.772095 347.729156,416.943817 
	C349.024323,415.527832 350.822449,414.571960 353.102600,413.303772 
	C354.976349,413.099548 356.146301,413.066772 357.290161,412.877075 
	C395.889801,406.476013 434.486969,400.059998 473.517029,393.612244 
	C478.037048,392.896118 482.116058,392.158051 486.213287,391.540680 
	C513.081055,387.492462 539.597168,380.784546 567.471436,380.900116 
	C574.385986,381.173401 580.917542,380.803314 587.272644,381.693542 
	C607.219421,384.487549 627.099792,387.755981 647.373779,390.977692 
	C665.161133,396.060577 682.580566,401.006409 700.298096,406.164185 
	C717.035034,412.325226 733.473755,418.274323 750.145752,424.485046 
	C763.895752,430.140045 777.412476,435.533386 791.160217,441.202881 
	C821.500061,454.554871 851.608887,467.630737 882.074341,480.855347 
	C908.265686,491.400116 934.100525,501.796143 960.137207,512.500854 
	C974.366455,517.323303 988.241333,522.409424 1002.461975,526.197083 
	C1018.144897,530.374268 1034.145142,533.359680 1050.405396,536.981934 
	C1068.466187,539.984253 1086.326294,541.523010 1103.985718,538.626587 
	C1142.354126,532.333679 1180.727905,525.894043 1218.818848,518.135681 
	C1262.919556,509.153107 1306.727905,498.730133 1350.643433,488.844604 
	C1362.898804,486.085846 1375.084351,483.016418 1387.704834,480.149384 
	C1396.072876,478.456726 1404.037842,476.704254 1412.406738,474.989563 
	C1438.929688,469.838165 1465.048828,464.649017 1491.594238,459.436340 
	C1517.398682,455.755829 1542.776978,452.098846 1568.605713,448.456207 
	C1583.471191,447.361267 1597.869263,445.894226 1612.304443,445.221466 
	C1637.916016,444.027832 1663.490723,444.967987 1688.977783,447.891205 
	C1714.474365,475.168274 1737.315674,504.548859 1757.599487,535.860107 
	C1767.161377,550.620239 1775.757080,566.007141 1784.743896,581.137756 
	C1785.661377,582.682312 1786.257690,584.417603 1786.993408,586.418518 
z"/>
<path fill="#E0EEFC" opacity="1.000000" stroke="none" 
	d="
M1412.002930,474.951782 
	C1404.037842,476.704254 1396.072876,478.456726 1387.314209,480.127075 
	C1375.678223,472.702087 1364.835938,465.359192 1353.994507,457.601624 
	C1350.531006,442.540985 1347.594360,427.745087 1343.484253,413.282684 
	C1336.548828,388.878357 1325.967163,365.957031 1313.470459,343.893829 
	C1300.078613,320.250549 1284.023804,298.558350 1265.275146,278.955048 
	C1256.685059,269.973297 1247.299072,261.716980 1237.935913,253.517776 
	C1220.142944,237.936890 1200.525757,224.966476 1179.667603,213.842896 
	C1148.831177,197.398056 1116.375000,185.458450 1081.890381,179.579285 
	C1067.252441,177.083725 1052.446899,175.010284 1037.639404,174.233109 
	C1023.413391,173.486450 1009.004944,173.827209 994.824707,175.209396 
	C977.596741,176.888718 960.337463,179.292053 943.423767,182.926926 
	C911.382996,189.812744 881.279236,202.172989 852.934692,218.594086 
	C822.461121,236.248566 795.017944,257.649048 771.308594,283.937927 
	C756.450867,300.412201 743.275940,317.989777 731.786621,336.859741 
	C718.526672,358.638062 707.645264,381.564362 699.999939,405.952240 
	C682.580566,401.006409 665.161133,396.060577 647.419678,390.620392 
	C647.692627,388.754211 648.388306,387.416626 648.867676,386.005524 
	C656.854858,362.491486 667.206482,340.054932 679.270569,318.362579 
	C693.934082,291.996185 711.638733,267.794281 732.030762,245.676437 
	C748.357239,227.968231 766.015076,211.575760 785.704468,197.507751 
	C789.090088,195.088715 791.907776,191.874680 794.987793,189.027893 
	C806.971313,186.685196 818.907288,184.052933 830.950256,182.071884 
	C846.584961,179.500000 862.276428,177.220154 877.997498,175.244873 
	C889.473938,173.802917 901.020813,172.790054 912.566284,172.058899 
	C931.909241,170.833923 951.266785,169.711456 970.635437,169.055908 
	C990.400757,168.386932 1010.188843,167.999664 1029.963013,168.121674 
	C1044.037109,168.208527 1058.130249,169.012680 1072.168579,170.096237 
	C1088.801392,171.380081 1105.416748,173.041107 1121.981323,175.024963 
	C1142.145996,177.439987 1162.354858,179.757874 1182.351562,183.229309 
	C1203.512939,186.902939 1224.461060,191.820343 1245.472778,196.331833 
	C1251.450806,197.615402 1257.326172,199.377838 1263.663330,201.314972 
	C1264.683716,202.454102 1265.193604,203.310120 1265.909668,203.926804 
	C1274.072388,210.956436 1282.857544,217.376663 1290.322998,225.077957 
	C1303.714478,238.892700 1316.778076,253.085251 1329.140869,267.822876 
	C1347.142456,289.282715 1361.752686,313.126587 1373.955688,338.266113 
	C1387.685059,366.549927 1398.594482,395.999847 1404.693726,426.942078 
	C1407.821289,442.809052 1409.609375,458.940063 1412.002930,474.951782 
z"/>
<path fill="#D6E8FA" opacity="1.000000" stroke="none" 
	d="
M1412.406738,474.989563 
	C1409.609375,458.940063 1407.821289,442.809052 1404.693726,426.942078 
	C1398.594482,395.999847 1387.685059,366.549927 1373.955688,338.266113 
	C1361.752686,313.126587 1347.142456,289.282715 1329.140869,267.822876 
	C1316.778076,253.085251 1303.714478,238.892700 1290.322998,225.077957 
	C1282.857544,217.376663 1274.072388,210.956436 1265.909668,203.926804 
	C1265.193604,203.310120 1264.683716,202.454102 1264.043945,201.364838 
	C1307.591064,211.853363 1349.914429,226.495026 1391.483032,243.367004 
	C1401.328735,247.363235 1410.902222,252.030624 1420.807373,257.038971 
	C1421.433960,258.739319 1421.760986,259.839569 1422.288330,260.833466 
	C1431.472168,278.142822 1441.108398,295.227692 1449.787842,312.785675 
	C1464.261475,342.064941 1474.607056,372.915558 1481.628296,404.761566 
	C1485.609375,422.817688 1488.039429,441.215759 1491.167847,459.459839 
	C1465.048828,464.649017 1438.929688,469.838165 1412.406738,474.989563 
z"/>
<path fill="#D7E9FA" opacity="1.000000" stroke="none" 
	d="
M794.581970,189.028183 
	C791.907776,191.874680 789.090088,195.088715 785.704468,197.507751 
	C766.015076,211.575760 748.357239,227.968231 732.030762,245.676437 
	C711.638733,267.794281 693.934082,291.996185 679.270569,318.362579 
	C667.206482,340.054932 656.854858,362.491486 648.867676,386.005524 
	C648.388306,387.416626 647.692627,388.754211 647.051758,390.483337 
	C627.099792,387.755981 607.219421,384.487549 587.272644,381.693542 
	C580.917542,380.803314 574.385986,381.173401 567.478333,380.513245 
	C574.287354,352.853546 584.431396,326.646454 597.402161,301.773499 
	C608.197998,281.071320 621.135925,261.487793 633.048767,241.363586 
	C634.001465,239.754150 634.359619,237.792740 634.994019,235.994888 
	C651.305481,230.041321 667.487000,223.697464 683.955261,218.214844 
	C718.974731,206.556137 754.549255,196.881516 790.815491,189.867645 
	C791.947449,189.648727 793.056458,189.310867 794.581970,189.028183 
z"/>
<path fill="#CDE3F9" opacity="1.000000" stroke="none" 
	d="
M1491.594238,459.436340 
	C1488.039429,441.215759 1485.609375,422.817688 1481.628296,404.761566 
	C1474.607056,372.915558 1464.261475,342.064941 1449.787842,312.785675 
	C1441.108398,295.227692 1431.472168,278.142822 1422.288330,260.833466 
	C1421.760986,259.839569 1421.433960,258.739319 1421.016602,257.309265 
	C1422.586060,257.412048 1424.246338,257.700378 1425.706055,258.404388 
	C1465.596802,277.643188 1504.710815,298.284363 1541.618164,322.886139 
	C1542.134277,323.230133 1542.482666,323.825531 1542.605469,324.655823 
	C1538.203735,325.646301 1541.016602,328.190887 1541.379272,329.462036 
	C1545.612183,344.292358 1550.368774,358.978394 1554.370728,373.868164 
	C1560.948486,398.341309 1565.925049,423.147247 1568.155151,448.441895 
	C1542.776978,452.098846 1517.398682,455.755829 1491.594238,459.436340 
z"/>
<path fill="#CCE3F9" opacity="1.000000" stroke="none" 
	d="
M634.622375,236.037109 
	C634.359619,237.792740 634.001465,239.754150 633.048767,241.363586 
	C621.135925,261.487793 608.197998,281.071320 597.402161,301.773499 
	C584.431396,326.646454 574.287354,352.853546 567.014648,380.446564 
	C539.597168,380.784546 513.081055,387.492462 486.213287,391.540680 
	C482.116058,392.158051 478.037048,392.896118 473.500916,393.137634 
	C473.228821,391.062439 473.261414,389.397156 473.603516,387.798065 
	C479.327240,361.041321 487.537231,335.035767 497.115845,309.428406 
	C497.665222,307.959686 496.393005,305.809601 495.968597,303.976654 
	C506.959930,297.503479 517.590210,290.293060 529.012207,284.699158 
	C559.859375,269.591827 591.025269,255.133911 622.116760,240.529053 
	C626.001099,238.704437 630.198425,237.546265 634.622375,236.037109 
z"/>
<path fill="#C4DEF7" opacity="1.000000" stroke="none" 
	d="
M1568.605713,448.456207 
	C1565.925049,423.147247 1560.948486,398.341309 1554.370728,373.868164 
	C1550.368774,358.978394 1545.612183,344.292358 1541.379272,329.462036 
	C1541.016602,328.190887 1538.203735,325.646301 1542.666382,324.996307 
	C1549.835815,329.318848 1556.906128,333.291351 1563.392334,338.058594 
	C1579.519897,349.911987 1595.496826,361.978912 1611.300293,374.261078 
	C1619.139893,380.353912 1626.648071,386.908752 1633.979370,393.612061 
	C1645.613281,404.249176 1657.110107,415.045654 1668.398682,426.047821 
	C1675.407593,432.879028 1681.925293,440.214233 1688.820679,447.607239 
	C1663.490723,444.967987 1637.916016,444.027832 1612.304443,445.221466 
	C1597.869263,445.894226 1583.471191,447.361267 1568.605713,448.456207 
z"/>
<path fill="#C3DEF7" opacity="1.000000" stroke="none" 
	d="
M495.619324,304.022827 
	C496.393005,305.809601 497.665222,307.959686 497.115845,309.428406 
	C487.537231,335.035767 479.327240,361.041321 473.603516,387.798065 
	C473.261414,389.397156 473.228821,391.062439 473.068359,393.171539 
	C434.486969,400.059998 395.889801,406.476013 357.290161,412.877075 
	C356.146301,413.066772 354.976349,413.099548 353.385742,413.118439 
	C360.089111,406.088531 366.810913,398.647003 374.444611,392.302704 
	C392.423798,377.360321 410.313049,362.217957 429.214874,348.501740 
	C450.678528,332.926361 473.205414,318.816162 495.619324,304.022827 
z"/>
<path fill="#FEFEFF" opacity="1.000000" stroke="none" 
	d="
M1662.017090,1019.756714 
	C1661.683472,1008.914185 1662.291748,998.666809 1666.094482,988.852417 
	C1671.957764,973.720337 1684.748169,964.749451 1700.081543,965.000488 
	C1713.716797,965.223633 1725.427368,974.440918 1730.373657,989.840759 
	C1735.809204,1006.764099 1735.925049,1023.940796 1730.019775,1040.796387 
	C1725.365112,1054.082275 1716.316162,1062.944092 1701.713257,1063.943359 
	C1686.313110,1064.997192 1674.743408,1057.831909 1668.349854,1044.130737 
	C1664.920044,1036.781006 1664.053833,1028.234985 1662.017090,1019.756714 
z"/>
<path fill="#FEFEFF" opacity="1.000000" stroke="none" 
	d="
M494.961578,1002.136353 
	C499.265625,978.984314 513.408142,966.667908 534.841125,967.000305 
	C551.290283,967.255432 564.847107,977.431946 569.995789,993.817383 
	C574.135315,1006.991150 574.303223,1020.402222 570.517395,1033.660889 
	C565.339233,1051.795410 551.013489,1061.985107 532.169678,1061.447266 
	C514.149597,1060.933105 499.749878,1049.527466 496.271057,1031.252075 
	C494.499207,1021.943848 495.293884,1012.147156 494.961578,1002.136353 
z"/>
<path fill="#FDFDFE" opacity="1.000000" stroke="none" 
	d="
M1293.154785,1043.155273 
	C1291.191406,1065.155762 1275.048096,1079.160400 1255.444214,1076.088745 
	C1247.578735,1074.856201 1241.193726,1071.157227 1238.908936,1062.957397 
	C1236.660522,1054.888672 1239.193237,1047.411865 1245.883789,1043.151001 
	C1253.305542,1038.424438 1261.802490,1035.216064 1270.116577,1032.110840 
	C1277.676758,1029.287109 1285.619751,1027.488403 1294.227295,1024.996582 
	C1293.884521,1030.759277 1293.529053,1036.733276 1293.154785,1043.155273 
z"/>
<path fill="#E8F2FC" opacity="1.000000" stroke="none" 
	d="
M790.929260,440.926697 
	C777.412476,435.533386 763.895752,430.140045 750.201782,424.098511 
	C755.005188,411.324402 759.405457,398.918610 765.090881,387.132721 
	C775.869751,364.788300 789.265930,344.117371 805.845276,325.470856 
	C822.819763,306.379913 841.307312,289.029785 862.647461,275.045288 
	C885.783997,259.883606 910.547729,247.960846 937.108398,239.746613 
	C964.405640,231.304550 992.376099,227.366699 1020.758362,227.249863 
	C1036.071533,227.186844 1051.605957,228.541519 1066.659058,231.322128 
	C1084.007935,234.526810 1101.296753,238.980026 1117.939087,244.810715 
	C1132.744385,249.997787 1146.817017,257.438995 1160.876221,264.551117 
	C1179.040405,273.739716 1195.259766,285.980621 1210.043579,299.823242 
	C1221.541138,310.588806 1232.232300,322.298737 1242.549194,334.222931 
	C1258.089233,352.184174 1269.527344,372.846375 1279.517700,394.280701 
	C1282.792847,401.307617 1285.198486,408.739777 1287.691650,415.841675 
	C1284.084229,413.794891 1280.878906,411.707428 1277.473755,410.023865 
	C1263.821289,403.273865 1250.400024,395.934753 1236.339478,390.162354 
	C1219.472778,383.237793 1201.555176,382.566528 1183.610840,385.160919 
	C1178.314697,385.926605 1173.168579,387.729401 1167.549072,389.032043 
	C1163.785767,389.828033 1160.348999,390.415161 1157.080444,391.505859 
	C1124.034912,402.532715 1092.423584,416.972748 1060.658691,432.009094 
	C1057.856201,432.622437 1055.436890,433.154663 1053.073608,433.871155 
	C1044.426880,436.492645 1035.732666,438.253265 1026.692871,435.963837 
	C1023.812866,435.234467 1020.895447,434.652893 1017.629456,433.963226 
	C1012.811096,431.793640 1008.229187,429.894714 1003.933838,427.485016 
	C996.196777,423.144501 988.631348,418.498016 980.905579,413.740570 
	C980.531494,413.325470 980.246094,413.149200 979.991333,412.972168 
	C980.022034,412.971375 980.033875,413.031555 979.841125,412.753357 
	C976.005676,410.144470 972.464905,407.632324 968.700989,405.517273 
	C957.622070,399.291718 946.278137,393.198242 933.099731,394.261627 
	C925.398071,394.883087 917.601807,396.542450 910.254883,398.967407 
	C878.224060,409.539673 846.311768,420.475311 814.427856,431.485718 
	C806.458557,434.237732 798.754944,437.759003 790.929260,440.926697 
z"/>
<path fill="#E5F0FC" opacity="1.000000" stroke="none" 
	d="
M1288.001831,415.986633 
	C1285.198486,408.739777 1282.792847,401.307617 1279.517700,394.280701 
	C1269.527344,372.846375 1258.089233,352.184174 1242.549194,334.222931 
	C1232.232300,322.298737 1221.541138,310.588806 1210.043579,299.823242 
	C1195.259766,285.980621 1179.040405,273.739716 1160.876221,264.551117 
	C1146.817017,257.438995 1132.744385,249.997787 1117.939087,244.810715 
	C1101.296753,238.980026 1084.007935,234.526810 1066.659058,231.322128 
	C1051.605957,228.541519 1036.071533,227.186844 1020.758362,227.249863 
	C992.376099,227.366699 964.405640,231.304550 937.108398,239.746613 
	C910.547729,247.960846 885.783997,259.883606 862.647461,275.045288 
	C841.307312,289.029785 822.819763,306.379913 805.845276,325.470856 
	C789.265930,344.117371 775.869751,364.788300 765.090881,387.132721 
	C759.405457,398.918610 755.005188,411.324402 749.968567,423.836853 
	C733.473755,418.274323 717.035034,412.325226 700.298096,406.164185 
	C707.645264,381.564362 718.526672,358.638062 731.786621,336.859741 
	C743.275940,317.989777 756.450867,300.412201 771.308594,283.937927 
	C795.017944,257.649048 822.461121,236.248566 852.934692,218.594086 
	C881.279236,202.172989 911.382996,189.812744 943.423767,182.926926 
	C960.337463,179.292053 977.596741,176.888718 994.824707,175.209396 
	C1009.004944,173.827209 1023.413391,173.486450 1037.639404,174.233109 
	C1052.446899,175.010284 1067.252441,177.083725 1081.890381,179.579285 
	C1116.375000,185.458450 1148.831177,197.398056 1179.667603,213.842896 
	C1200.525757,224.966476 1220.142944,237.936890 1237.935913,253.517776 
	C1247.299072,261.716980 1256.685059,269.973297 1265.275146,278.955048 
	C1284.023804,298.558350 1300.078613,320.250549 1313.470459,343.893829 
	C1325.967163,365.957031 1336.548828,388.878357 1343.484253,413.282684 
	C1347.594360,427.745087 1350.531006,442.540985 1353.644287,457.561890 
	C1352.709595,457.636169 1352.095825,457.382416 1351.546875,457.028015 
	C1330.361450,443.353302 1309.182007,429.669342 1288.001831,415.986633 
z"/>
<path fill="#FFFFFF" opacity="1.000000" stroke="none" 
	d="
M1287.691650,415.841675 
	C1309.182007,429.669342 1330.361450,443.353302 1351.546875,457.028015 
	C1352.095825,457.382416 1352.709595,457.636169 1353.643433,457.976562 
	C1364.835938,465.359192 1375.678223,472.702087 1386.911133,480.067261 
	C1375.084351,483.016418 1362.898804,486.085846 1350.643433,488.844604 
	C1306.727905,498.730133 1262.919556,509.153107 1218.818848,518.135681 
	C1180.727905,525.894043 1142.354126,532.333679 1103.985718,538.626587 
	C1086.326294,541.523010 1068.466187,539.984253 1050.412109,536.592896 
	C1054.771851,518.472595 1060.607178,501.261810 1069.125732,484.678955 
	C1076.552856,470.865967 1087.312134,460.482666 1099.895630,452.208649 
	C1113.756348,443.094910 1128.389282,435.162842 1142.377808,426.233673 
	C1152.190063,419.970337 1160.323608,412.027954 1163.562256,400.157959 
	C1164.603271,396.342255 1166.466553,392.750885 1167.953613,389.056915 
	C1173.168579,387.729401 1178.314697,385.926605 1183.610840,385.160919 
	C1201.555176,382.566528 1219.472778,383.237793 1236.339478,390.162354 
	C1250.400024,395.934753 1263.821289,403.273865 1277.473755,410.023865 
	C1280.878906,411.707428 1284.084229,413.794891 1287.691650,415.841675 
z"/>
<path fill="#FFFFFF" opacity="1.000000" stroke="none" 
	d="
M980.994202,413.979401 
	C988.631348,418.498016 996.196777,423.144501 1003.933838,427.485016 
	C1008.229187,429.894714 1012.811096,431.793640 1017.624634,434.354065 
	C1015.036621,442.504425 1012.050781,450.209625 1009.146118,457.945282 
	C1002.184937,476.484192 991.240112,491.768585 973.932190,502.120605 
	C969.016968,505.060455 964.587524,508.812561 959.935303,512.192139 
	C934.100525,501.796143 908.265686,491.400116 882.148987,480.508118 
	C884.219604,475.258759 886.811218,470.606781 888.879272,465.732727 
	C894.721619,451.963043 900.258118,438.063721 906.084717,424.287231 
	C913.200989,407.461395 925.560364,400.470947 940.761169,402.484375 
	C949.553467,403.648987 958.072571,406.898193 966.703552,409.250122 
	C971.159607,410.464417 975.591187,411.768219 980.033875,413.031555 
	C980.033875,413.031555 980.022034,412.971375 980.047852,413.230530 
	C980.380493,413.652924 980.687378,413.816162 980.994202,413.979401 
z"/>
<path fill="#F0F7FD" opacity="1.000000" stroke="none" 
	d="
M960.137207,512.500854 
	C964.587524,508.812561 969.016968,505.060455 973.932190,502.120605 
	C991.240112,491.768585 1002.184937,476.484192 1009.146118,457.945282 
	C1012.050781,450.209625 1015.036621,442.504425 1017.990356,434.394531 
	C1020.895447,434.652893 1023.812866,435.234467 1026.692871,435.963837 
	C1035.732666,438.253265 1044.426880,436.492645 1053.073608,433.871155 
	C1055.436890,433.154663 1057.856201,432.622437 1060.586304,432.421875 
	C1060.613892,434.787933 1059.798584,436.813141 1060.075928,438.675720 
	C1062.311035,453.693939 1064.735229,468.684326 1067.197998,483.667419 
	C1067.284912,484.196472 1068.376587,484.560364 1069.000000,485.001221 
	C1060.607178,501.261810 1054.771851,518.472595 1050.013916,536.475098 
	C1034.145142,533.359680 1018.144897,530.374268 1002.461975,526.197083 
	C988.241333,522.409424 974.366455,517.323303 960.137207,512.500854 
z"/>
<path fill="#80BEEE" opacity="1.000000" stroke="none" 
	d="
M979.841125,412.753357 
	C975.591187,411.768219 971.159607,410.464417 966.703552,409.250122 
	C958.072571,406.898193 949.553467,403.648987 940.761169,402.484375 
	C925.560364,400.470947 913.200989,407.461395 906.084717,424.287231 
	C900.258118,438.063721 894.721619,451.963043 888.879272,465.732727 
	C886.811218,470.606781 884.219604,475.258759 881.792419,480.359375 
	C851.608887,467.630737 821.500061,454.554871 791.160217,441.202881 
	C798.754944,437.759003 806.458557,434.237732 814.427856,431.485718 
	C846.311768,420.475311 878.224060,409.539673 910.254883,398.967407 
	C917.601807,396.542450 925.398071,394.883087 933.099731,394.261627 
	C946.278137,393.198242 957.622070,399.291718 968.700989,405.517273 
	C972.464905,407.632324 976.005676,410.144470 979.841125,412.753357 
z"/>
<path fill="#B5D7F5" opacity="1.000000" stroke="none" 
	d="
M1069.125732,484.678955 
	C1068.376587,484.560364 1067.284912,484.196472 1067.197998,483.667419 
	C1064.735229,468.684326 1062.311035,453.693939 1060.075928,438.675720 
	C1059.798584,436.813141 1060.613892,434.787933 1060.995239,432.425293 
	C1092.423584,416.972748 1124.034912,402.532715 1157.080444,391.505859 
	C1160.348999,390.415161 1163.785767,389.828033 1167.549072,389.032043 
	C1166.466553,392.750885 1164.603271,396.342255 1163.562256,400.157959 
	C1160.323608,412.027954 1152.190063,419.970337 1142.377808,426.233673 
	C1128.389282,435.162842 1113.756348,443.094910 1099.895630,452.208649 
	C1087.312134,460.482666 1076.552856,470.865967 1069.125732,484.678955 
z"/>
<path fill="#80BEEE" opacity="1.000000" stroke="none" 
	d="
M980.905579,413.740570 
	C980.687378,413.816162 980.380493,413.652924 980.017212,413.231323 
	C980.246094,413.149200 980.531494,413.325470 980.905579,413.740570 
z"/>
</svg>